<?xml version="1.0" encoding="utf-8"?>
<!-- Generator: Adobe Illustrator 27.5.0, SVG Export Plug-In . SVG Version: 6.00 Build 0)  -->
<svg version="1.1" xmlns="http://www.w3.org/2000/svg" xmlns:xlink="http://www.w3.org/1999/xlink" x="0px" y="0px"
	 viewBox="0 0 500 500" style="enable-background:new 0 0 500 500;" xml:space="preserve">
<g id="BACKGROUND">
	<rect style="fill:#FFFFFF;" width="500" height="500"/>
</g>
<g id="OBJECTS">
	<g>
		<path d="M46.829,159.571c-0.192-0.038-0.385-0.043-0.576,0.005c-0.063,0.025-0.148,0.061-0.221,0.092
			c-0.123,0.048-0.247,0.091-0.372,0.132c0.074-0.053,0.147-0.106,0.221-0.159c0.215-0.181,0.495-0.3,0.666-0.524
			c0.535-0.648-0.285-1.575-1.005-1.144c-0.637,0.453-1.254,0.946-1.961,1.287c-0.251,0.148-1.615,0.595-2.46,0.959
			c-0.886,0.416-1.583,1.225-1.856,2.165c-0.278,0.807-0.153,1.667,0.157,2.445c0.497,1.283,1.916,1.992,3.249,1.922
			c1.144-0.068,2.358-0.617,3.057-1.541c0.211-0.342,0.391-0.722,0.47-1.119c0.001-0.001,0.002-0.002,0.003-0.003
			c0.034-0.087,1.253-1.258,1.191-2.236C47.753,160.914,47.797,159.965,46.829,159.571z"/>
		<path d="M53.51,164.516c-0.163-0.578-0.334-1.153-0.522-1.723c-0.886-2.605-1.702-5.446-3.914-7.257
			c-2.011-1.47-4.552-1.961-6.984-2.207c-0.428-0.049-0.855-0.102-1.282-0.152c-0.091-0.003-0.175,0.016-0.254,0.057
			c-0.659,0.254-0.452,1.269,0.254,1.262c2.082,0.256,3.39,0.301,5.458,1.04c0.447,0.152,1.134,0.451,1.875,0.939
			c0.014,0.01,0.024,0.018,0.035,0.025c0.438,0.358,0.806,0.792,1.173,1.221c1.281,1.54,2.092,5.055,3.163,7.697
			c0.279,0.415,0.978,0.268,1.094-0.213C53.673,164.971,53.561,164.742,53.51,164.516z"/>
		<path d="M55.418,162.273c-0.118-0.521-0.272-1.033-0.445-1.538c-0.234-0.633-0.446-1.277-0.745-1.883
			c-0.228-0.424-0.539-0.798-0.814-1.192c-0.47-0.76-1.601-0.1-1.173,0.685c0.689,0.904,0.947,1.378,1.208,2.171
			c0.262,0.727,0.533,1.453,0.722,2.203c0.068,0.269,0.11,0.583,0.381,0.725c0.351,0.216,0.843,0.012,0.947-0.385
			C55.564,162.798,55.456,162.532,55.418,162.273z"/>
		<path d="M56.52,160.589c-0.103-0.495-0.269-0.974-0.424-1.455c-0.13-0.332-0.159-0.759-0.501-0.95
			c-0.526-0.332-1.239,0.216-1.055,0.811c0.172,0.514,0.354,1.025,0.505,1.546c0.079,0.219,0.087,0.48,0.244,0.661
			C55.734,161.818,56.728,161.315,56.52,160.589z"/>
		<path d="M98.634,118.294c-0.868-1.161-2.312-1.939-3.767-1.937c-0.522,0.037-1.226,0.091-2.217,0.523
			c-1.776,0.779-3.327,1.979-5,2.948c-1.364,0.599-0.556,2.483,0.779,1.845c0.435-0.265,0.845-0.527,1.237-0.782
			c0.413,0.561,0.26,0.355,0.624,0.811c1.276,1.493,3.256,2.308,5.211,1.973c0.869-0.086,1.676-0.441,2.39-0.933
			c0.452-0.322,0.935-0.64,1.247-1.109C100.012,120.604,99.372,119.211,98.634,118.294z M94.615,118.229
			c-0.044,0.111-0.08,0.224-0.098,0.339c0.015-0.136-0.041,0.084-0.102,0.254c-0.266,0.501-0.234,0.4-0.378,0.583
			c-0.507,0.483-0.533,0.438-0.969,0.619c-0.064,0.022-0.13,0.038-0.197,0.052c-0.345-0.032-0.187,0.043-0.701-0.106
			c-0.029-0.016-0.065-0.037-0.105-0.061c-0.152-0.086-0.287-0.189-0.426-0.317C92.766,118.866,93.719,118.341,94.615,118.229z"/>
		<path d="M153.721,93.917c-0.407,0.022-2.305,0.221-2.836,0.288c-1.784,0.213-3.595,0.081-5.368,0.382
			c-1.186,0.193-2.272,0.716-3.352,1.219c-1.898,0.946-3.572,2.341-4.857,4.027c-1.033,1.298-1.825,2.788-2.392,4.345
			c-0.407,1.236-0.835,2.483-1.172,3.175c-0.27,0.653-0.678,1.232-1.102,1.792c-1.225,1.586-2.738,2.102-4.21,3.848
			c-0.898,1.114-1.747,2.381-1.789,3.859c0.012,0.417-0.049,0.959,0.093,1.336c0.325,0.836,1.609,0.575,1.602-0.323
			c-0.016-0.402-0.049-0.807-0.009-1.209c0.045-0.283,0.117-0.563,0.218-0.832c0.933-1.94,2.45-3.13,3.862-4.214
			c1.51-1.246,2.571-2.944,3.236-4.771c0.764-2.126,1.076-3.275,2.315-5.166c0.595-0.816,1.074-1.461,2.076-2.441
			c0.135-0.142,0.754-0.628,0.384-0.343c0.992-0.79,2.054-1.485,3.225-1.978c0.728-0.341,1.153-0.529,2.302-0.764
			c1.095-0.22,3.193-0.121,4.925-0.365c0.809-0.102,1.608-0.271,2.408-0.429c0.333-0.102,0.726-0.085,1.012-0.291
			C154.857,94.658,154.406,93.719,153.721,93.917z"/>
		<path d="M137.098,112.388c-0.349-0.187-0.765-0.024-1.14-0.024c-0.471,0.041-0.939,0.1-1.406,0.17
			c-0.302,0.075-0.668,0.024-0.919,0.229c-0.407,0.294-0.319,0.828-0.002,1.091c-0.028,0.004-0.056,0.006-0.084,0.01
			c-0.312,0.05-0.659,0.018-0.897,0.263c-0.455,0.448-0.124,1.182,0.433,1.244c-0.585,0.071-1.167,0.164-1.742,0.285
			c-0.448,0.144-1.063,0.074-1.337,0.522c-0.325,0.516,0.211,1.214,0.794,1.033c1.486-0.324,2.031-0.418,3.438-0.53
			c0.394-0.043,0.788-0.076,1.181-0.124c0.185-0.002,0.37-0.062,0.5-0.197c0.304-0.29,0.23-0.829-0.133-1.036
			c-0.382-0.178-0.839-0.072-1.249-0.081c-0.334,0.018-0.668,0.046-1.001,0.079c0.72-0.106,1.598-0.178,2.706-0.306
			c0.42,0.01,0.741-0.422,0.627-0.823c-0.089-0.354-0.427-0.484-0.758-0.485c0.028-0.003,0.055-0.007,0.085-0.01
			c0.413-0.072,1.006,0.012,1.177-0.477C137.518,112.927,137.374,112.551,137.098,112.388z"/>
		<path d="M125.301,117.894c0.007,0.056,0.015,0.112,0.022,0.168c-0.318-2.12-0.416-4.305-1.04-6.364
			c-0.245-0.747-0.575-1.464-0.993-2.13c-0.123-0.217-0.25-0.464-0.514-0.525c-0.516-0.16-0.991,0.457-0.704,0.915
			c1.523,2.345,1.439,4.845,1.948,7.848c0.048,0.216,0.019,0.472,0.177,0.645c0.174,0.26,0.55,0.314,0.813,0.162
			c0.147-0.081,0.236-0.221,0.29-0.377C125.334,118.122,125.331,118.008,125.301,117.894z"/>
		<path d="M156.057,277.753c-0.193-0.365-0.393-0.727-0.585-1.093c-0.599-1.133-1.19-2.271-1.736-3.431
			c-1.548-3.428-3.581-9.077-3.966-12.746c-0.147-1.28-0.262-2.564-0.299-3.852c-0.031-1.412,0.084-2.822,0.101-4.233
			c0-2.276-0.109-4.551-0.227-6.823c-0.153-2.737-0.287-5.485-0.835-8.177c-0.231-1.07-0.517-2.127-0.846-3.171
			c-0.181-0.429-0.162-1.015-0.578-1.288c-0.49-0.302-1.156,0.196-0.983,0.756c0.776,2.467,1.279,4.677,1.492,6.833
			c0.263,3.451,0.419,6.911,0.468,10.372c0.045,1.571-0.088,3.137-0.135,4.706c-0.022,1.222,0.059,2.442,0.174,3.658
			c0.253,3.28,1.131,6.471,2.236,9.559c0.89,2.385,1.826,4.762,3.1,6.973c0.443,0.792,0.9,1.576,1.363,2.357
			c0.165,0.238,0.271,0.537,0.497,0.722c0.232,0.205,0.61,0.165,0.824-0.049C156.453,278.494,156.26,278.09,156.057,277.753z"/>
		<g>
			<g>
				<g>
					<path d="M192.44,408.172c-0.007-0.008-0.013-0.016-0.02-0.024c0.011,0.015,0.023,0.031,0.037,0.047
						C192.451,408.187,192.445,408.179,192.44,408.172z"/>
					<g>
						<path d="M403.092,389.668c-0.001,0.002-0.001,0.003-0.002,0.004C403.085,389.691,403.085,389.693,403.092,389.668z"/>
						<g>
							<path d="M350.409,299.404c-0.008-0.009-0.014-0.019-0.022-0.028C350.452,299.46,350.523,299.549,350.409,299.404z"/>
							<g>
								<polygon points="135.277,235.09 135.278,235.091 135.277,235.09 								"/>
								<g>
									<path d="M257.602,129.481c-0.012,0.006-0.024,0.012-0.036,0.018c0.017-0.007,0.034-0.015,0.05-0.023
										C257.611,129.477,257.606,129.479,257.602,129.481z"/>
									<g>
										<path d="M60.405,112.416C60.405,112.416,60.405,112.416,60.405,112.416c-0.003-0.004-0.005-0.008-0.008-0.012
											c-0.013-0.031-0.017-0.042-0.014-0.038c-0.012-0.028-0.024-0.055-0.035-0.083c0.021,0.055,0.036,0.091,0.048,0.118
											c0,0,0,0,0,0c0,0,0,0.001,0,0.001c0.011,0.026,0.019,0.044,0.022,0.049c-0.008-0.018-0.015-0.034-0.02-0.046
											C60.4,112.41,60.403,112.414,60.405,112.416z"/>
										<g>
											<path d="M361.104,293.244c0-0.001,0-0.003,0-0.004c-0.004-0.03-0.007-0.055-0.011-0.084
												C361.076,293.033,361.077,293.046,361.104,293.244z"/>
											<path d="M484.425,322.899c-0.234-0.917-0.605-1.798-1.069-2.622c-0.514-0.812-1.079-1.606-1.788-2.26
												c-0.699-0.606-1.439-1.173-2.219-1.675c0.208-0.049,0.378-0.211,0.46-0.41c0.228,0.104,0.458,0.207,0.69,0.303
												c0.142,0.058,0.283,0.118,0.425,0.174c0.159,0.077,0.341,0.095,0.512,0.049c0.185-0.048,0.342-0.175,0.439-0.338
												c0.203-0.347,0.078-0.837-0.289-1.017c-0.396-0.199-0.786-0.408-1.17-0.629c-0.886-0.511-1.751-1.057-2.612-1.608
												c-2.012-1.282-3.404-2.269-4.859-3.532c-1.941-1.633-3.699-3.675-4.449-4.686c-1.955-2.676-3.313-5.782-5.676-8.153
												c-2.204-2.284-4.645-4.321-7.048-6.388c-1.788-1.489-4.234-3.693-5.202-5.059c-1.116-1.375-3.027-4.221-4.109-6.405
												c-0.53-0.979-1.022-1.978-1.544-2.962c-0.576-1.084-4.255-9.913-5.811-18.117c-0.558-2.942-0.771-5.346-1.036-8.611
												c-0.226-2.832-0.453-5.665-0.59-8.503c-0.227-5.222-0.878-10.408-1.48-15.597c-0.598-5.543-1.126-11.096-1.907-16.618
												c-0.919-6.186-1.728-12.398-3.076-18.51c-0.166-0.76-0.336-1.521-0.51-2.28c0.004-0.013,0.012-0.024,0.015-0.038
												c0.066-0.647-0.388-1.502-0.521-2.167c-0.568-1.883-1.023-3.796-1.513-5.7c-0.672-2.512-1.692-4.908-2.639-7.324
												c-1.001-2.759-2.099-5.5-3.681-7.984c-1.857-3.028-4.277-5.664-6.861-8.083c-2.447-2.33-5.101-4.46-8.02-6.169
												c-4.047-2.37-10.372-5.257-10.777-5.455c-2.17-1.09-4.377-2.104-6.645-2.973c-2.154-0.842-4.353-1.56-6.518-2.372
												c-2.356-0.911-4.72-1.801-7.055-2.764c-0.045-0.02-0.451-0.191-0.576-0.251c-0.447-0.198-0.894-0.395-1.341-0.594
												c-1.295-0.577-2.601-1.13-3.907-1.683c-2.691-1.148-4.438-1.915-6.798-2.926c-1.26-0.524-2.536-1.031-3.849-1.405
												c-1.501-0.338-3.048-0.521-4.588-0.454c-2.999,0.308-5.99,0.752-9.01,0.839c-3.01,0.059-6.021,0.125-9.031,0.109
												c-2.23-0.015-4.455-0.182-6.684-0.22c-2.37-0.068-4.735,0.158-7.105,0.129c-2.945,0.006-5.888-0.182-8.833-0.145
												c-3.882,0.096-7.763-0.022-11.644-0.113c-3.714,0.004-7.419-0.216-11.128-0.372c-2.472-0.02-4.941,0.165-7.414,0.148
												c-6.403-0.091-12.803-0.454-19.175-1.083c-2.711-0.258-5.406-0.658-8.116-0.924c-4.247-0.286-8.487-0.675-12.732-0.982
												c-6.251-0.257-12.507-0.421-18.758-0.706c-5.595-0.245-11.816-0.888-16.606-1.62c-1.56-0.244-3.1-0.597-4.658-0.853
												c-1.77-0.3-3.552-0.537-5.306-0.923c-3.176-0.703-6.371-1.336-9.591-1.798c-1.83-0.21-3.672-0.273-5.509-0.385
												c-2.435-0.193-4.848,0.269-7.26,0.533c-1.457,0.145-2.905,0.363-4.351,0.594c-1.681,0.235-3.354,0.527-4.989,0.992
												c-2.179,0.591-4.214,1.592-6.361,2.278c-2.117,0.695-4.777,1.339-6.333,1.518c-2.075,0.268-4.703,0.091-6.029-0.109
												c-2.537-0.354-4.936-1.289-7.307-2.221c-1.166-0.46-2.201-0.874-3.211-1.31c1.8,0.457,3.696,0.696,5.514,0.205
												c0.992-0.251,1.967-0.587,2.893-1.025c1.89-1.026,3.562-2.399,5.073-3.921c1.306-1.286,2.455-2.717,3.51-4.214
												c1.002-1.367,1.766-2.884,2.425-4.44c0.483-1.183,0.986-2.362,1.343-3.59c0.262-0.955,0.373-1.943,0.592-2.908
												c0.273-1.12,0.36-1.402,0.948-2.362c0.551-0.837,1.094-1.708,1.254-2.714c0.141-0.586,0.071-1.196-0.25-1.712
												c-0.569-0.983-1.4-1.777-2.37-2.359c-0.627-0.389-1.228-0.837-1.903-1.14c-0.818-0.372-1.708-0.531-2.594-0.643
												c-0.952-0.132-1.347-0.198-2.582-0.229c-1.856,0.035-3.717,0.021-5.565,0.209c-1.686,0.21-3.379,0.616-4.887,1.417
												c-1.363,0.8-2.619,1.773-4.019,2.513c-1.541,0.859-2.987,1.874-4.508,2.766c-1.844,1.04-3.712,2.036-5.492,3.187
												c-0.786,0.456-1.324,0.745-1.893,0.987c-0.089-0.002-0.177-0.001-0.265-0.003c-0.048-0.001-0.096-0.002-0.144-0.002
												c-0.996-0.558-2.034-1.041-3-1.652c-3.396-2.096-6.508-4.693-10.159-6.356c-2.732-1.288-5.81-0.883-8.71-0.562
												c-2.938,0.329-5.872,0.711-8.776,1.269c-3.488,0.723-5.909,1.107-8.556,1.421c-2.897,0.413-5.839,0.86-8.551,2.001
												c-2.142-0.544-3.759-1.523-5.302-3.073c-2.588-2.726-4.752-5.87-7.751-8.189c-1.187-0.933-2.455-1.848-3.939-2.227
												c-1.247-0.21-2.606-0.096-3.771,0.41c-2.647,1.345-2.863,4.718-3.106,6.747c-0.253,2.467-0.286,4.957-0.025,7.424
												c0.148,1.559,0.501,3.102,1.252,4.487c0.739,1.689,2.891,4.189,3.531,4.927c0.757,1.049,1.395,2.181,2.085,3.273
												c-0.015-0.031-0.037-0.09-0.053-0.132c0.026,0.053,0.046,0.1,0.059,0.133c-0.009-0.019-0.016-0.033-0.018-0.036
												c0.007,0.017,0.014,0.033,0.021,0.05c0.001,0.001,0.001,0.003,0.002,0.004c-0.001,0-0.002-0.003-0.002-0.003
												c0.005,0.011,0.009,0.021,0.014,0.032c0.001,0.003,0.001,0.005-0.001,0.002c0.002,0.005,0.003,0.007,0.005,0.012
												c0.075,0.176,0.136,0.322,0.17,0.394c0.037,0.104,0.089,0.203,0.156,0.291c-0.451,0.673-0.901,1.357-1.35,2.067
												c-1.462,2.295-3.749,6.282-5.03,9.518c-0.586,1.46-1.006,2.981-1.471,4.482c-0.213,0.831-0.561,1.654-0.736,2.495
												c-0.261,0.514-0.519,1.029-0.762,1.551c-2.287,4.608-4.966,9.032-7.95,13.222c-0.77,1.142-2.544,2.885-3.843,3.689
												c-0.933,0.639-1.306,0.877-2.065,1.073c-0.468,0.146-1.649,0.123-2.712,0.336c-0.81,0.18-1.589,0.519-2.303,0.939
												c-1.694,0.97-2.9,2.566-3.755,4.291c-0.411,0.867-0.802,1.75-0.993,2.696c-0.245,1.234-0.215,2.517-0.044,3.759
												c0.243,1.727,1.137,4.212,1.156,5.234c0.206,1.813-0.21,3.734,0.576,5.446c0.37,0.918,1.041,1.712,1.805,2.331
												c0.796,0.681,1.73,1.211,2.748,1.473c0.494,0.107,0.998,0.143,1.501,0.129c0.062,0.166,0.179,0.317,0.364,0.423
												c2.623,1.203,5.017,2.949,7.821,3.729c1.973,0.48,4.01,0.461,6.019,0.275c1.803-0.02,3.522-0.556,5.211-1.136
												c0.258-0.102,0.56-0.116,0.809-0.235c1.146,0.343,1.867,0.808,3.215,1.461c1.209,0.637,2.454,1.201,3.698,1.766
												c1.169,0.537,2.351,1.068,3.611,1.354c2.051,0.523,4.18,0.563,6.27,0.828c0.619,0.07,2.912,0.405,4.346,0.522
												c1.882,0.138,3.769,0.189,5.656,0.17c3.126-0.046,6.23-0.457,9.347-0.642c1.081-0.042,2.162-0.067,3.243-0.077
												c0.977-0.001,1.968,0.033,2.909-0.271c0.003-0.001,0.007-0.003,0.01-0.004c1.283,1.752,2.52,3.539,3.657,5.388
												c1.489,2.454,2.771,5.023,4.008,7.611c0.529,1.054,1.105,2.083,1.733,3.08c0.869,1.26,1.827,2.456,2.791,3.644
												c1.653,2.015,3.42,3.932,5.099,5.924c1.914,2.346,3.068,3.891,4.807,6.182c2.467,3.317,4.799,5.957,6.898,9.06
												c0.286,0.421,0.563,0.848,0.819,1.288c0.121,0.179,0.184,0.409,0.371,0.532c0.01,0.008,0.02,0.015,0.03,0.022
												c0.022,0.123,0.042,0.246,0.065,0.368c0.356,1.903,0.92,3.758,1.381,5.637c0.439,1.71,0.876,3.423,1.429,5.101
												c1.696,4.782,4.438,9.14,6.329,13.852c1.529,3.872,4.352,9.882,5.999,14.112c1.031,2.559,1.896,5.178,2.797,7.785
												c0.695,1.97,1.37,3.955,2.358,5.802c1.275,2.436,2.941,4.646,4.573,6.851c1.023,1.329,2.017,2.689,3.183,3.899
												c1.009,1.026,2.134,1.934,3.272,2.813c1.559,1.167,3.679,2.266,4.925,2.741c0.244,0.104,0.488,0.208,0.732,0.312
												c0.472,2.57,0.764,4.076,0.915,6.553c0.171,2.354,0.358,4.713,0.342,7.075c0.008,3.523-0.28,7.042-0.167,10.564
												c0.073,1.949,0.416,3.88,0.878,5.772c0.653,2.346,1.512,4.626,2.25,6.946c0.277,0.879,0.557,1.758,0.819,2.642
												c0.132,0.327,0.141,0.719,0.358,1.003c0.193,0.289,0.585,0.378,0.904,0.265c-0.095,1.338-0.168,2.677-0.205,4.018
												c-0.108,3.087-0.023,6.175-0.049,9.263c-0.052,2.262-0.221,4.52-0.332,6.779c-0.098,2.708-0.309,5.611-0.61,7.598
												c-0.523,3.306-1.564,6.488-2.709,9.624c-1.404,3.957-2.373,6.784-4.362,10.373c-0.647,1.074-0.99,1.539-1.533,2.156
												c-0.604,0.6-1.284,1.119-1.93,1.674c-0.066,0.034-0.128,0.076-0.183,0.135c-0.035,0.033-0.065,0.069-0.092,0.106
												c-0.058,0.052-0.116,0.103-0.173,0.155c-1.62,1.468-3.059,3.12-4.553,4.712c-1.844,1.974-3.63,4.062-4.755,6.542
												c-0.406,0.883-0.932,1.768-0.95,2.764c0.348,3.868,6.557,3.147,9.285,2.861c3.068-0.288,6.111-0.797,9.119-1.464
												c-0.754,0.662-1.593,1.329-2.387,2.167c-1.495,1.391-2.545,3.259-2.752,5.307c-0.069,0.516-0.113,1.034-0.148,1.553
												c-0.025,0.409-0.05,0.831,0.097,1.219c0.152,0.557,0.642,0.896,1.146,1.121c0.842,0.423,1.945,0.585,2.855,0.355
												c0.087-0.03,0.161-0.077,0.225-0.132c0.462,0.517,1.223,0.779,1.887,0.933c2.697,0.602,5.012,0.657,8.115,0.58
												c3.928-0.252,7.906-0.381,11.741-1.337c3.092-0.914,5.136-5.037,5.953-7.94c0.12-0.448,0.191-0.907,0.251-1.366
												l-0.033,0.244c0.102-0.635,0.182-1.276,0.165-1.921c-0.025-1.21-0.303-2.397-0.582-3.57
												c-0.444-2.026-0.439-2.803,0.28-5.032c1.071-0.255,2.128-0.564,3.188-0.858c0.887-0.263,1.812-0.503,2.576-1.044
												c0.07-0.056,0.126-0.099,0.151-0.117c0.034-0.026,0.069-0.052,0.103-0.08c0.366-0.331,0.556-0.825,0.565-1.313
												c-0.03-0.942-0.4-1.861-1.02-2.568c-0.517-0.629-1.133-1.174-1.819-1.614c-0.264-0.222-0.588-0.305-0.878-0.252
												c0.127-1.151,0.192-2.229,0.018-3.768c-0.01-0.472-0.518-2.31-0.84-3.566c-0.356-1.587-0.314-1.728-0.415-2.477
												c-0.158-2.182,0.023-4.372,0.151-6.552c0.158-2.319,0.266-4.641,0.265-6.966c-0.001-4.169-0.2-8.336-0.23-12.505
												c-0.018-1.486-0.061-2.972-0.051-4.458c0.025-0.802,0.17-1.607,0.542-2.764c0.718-2.38,2.212-4.605,3.132-7.369
												c0.484-1.451,0.691-2.968,0.927-4.473c0.225-1.465,0.511-2.919,0.793-4.374c0.574-3.296,1.39-6.545,2.416-9.729
												c1.072-3.212,2.316-6.363,3.438-9.558c1.227-3.583,2.518-7.143,3.749-10.724c0.718-2.353,1.448-4.705,2.059-7.088
												c0.394-1.541,0.658-3.11,1.015-4.659c0.601-2.622,1.349-5.206,2.15-7.774c0.024,0.002,0.047,0.006,0.071,0.006
												c2.486-0.383,4.676-0.051,6.568,0.256c3.836,0.598,7.529,1.843,11.275,2.826c4.132,1.065,8.338,1.808,12.486,2.803
												c2.516,0.578,5.002,1.286,7.532,1.804c2.967,0.57,4.883,0.8,7.642,1.078c6.218,0.709,12.486,0.481,18.727,0.788
												c4.404,0.221,8.819,0.374,13.228,0.193c3.39-0.181,6.751-0.689,10.14-0.883c3.843-0.303,7.695-0.463,11.529-0.872
												c2.486-0.183,5-0.424,7.376-1.22c1.106-0.394,2.137-0.97,3.177-1.51l0.009-0.005c-0.051,0.314,0.063,0.656,0.428,0.883
												c2.403,1.34,5.013,2.644,7.833,2.555c0.127-0.003,0.254-0.008,0.381-0.015c0.003,0.012,0.004,0.023,0.007,0.034
												c0.404,1.616,0.865,3.223,1.516,4.759c0.382,0.896,0.745,1.843,1.472,2.522c0.596,0.531,1.303,1.014,2.119,1.087
												c1.456,0.097,2.558-0.82,2.611-2.299c0.106-0.751-0.001-1.511-0.069-2.261c-0.106-0.978-0.209-1.958-0.222-2.943
												c-0.013-0.539,0.029-1.077,0.105-1.611c0.014-0.105,0.029-0.21,0.043-0.315c0-0.098-0.02-0.195-0.055-0.288
												c1-0.265,1.989-0.573,3.011-0.741c0.048,0.047,0.101,0.092,0.167,0.129c0.826,0.559,1.621,1.173,2.498,1.652
												c0.401,0.19,0.807,0.373,1.218,0.542c-0.311,2.248-0.752,4.611,0.092,6.794c0.273,0.678,0.619,1.329,1.077,1.901
												c0.278,0.38,0.629,0.707,1.044,0.934c0.61,0.343,1.361,0.481,2.039,0.272c0.67-0.248,1.291-0.655,1.659-1.283
												c0.923-1.376,0.751-3.117,0.931-4.695c0.059-0.862,0.153-1.724,0.17-2.587c0-0.038-0.005-0.075-0.009-0.113
												c0.001,0.001,0.002,0.003,0.003,0.002c-0.004-0.054-0.013-0.108-0.02-0.163c-0.003-0.019-0.005-0.035-0.007-0.052
												c0.001,0.005,0.001,0.008,0.002,0.013c0.004-0.104-0.018-0.202-0.065-0.292c-0.005-0.016-0.015-0.03-0.021-0.045
												c0.379-0.063,0.756-0.137,1.13-0.223c-0.026,1.453-0.004,2.907,0.081,4.358c0.065,1.078,0.108,2.3,0.957,3.083
												c1.116,1.037,3.123,0.761,3.87-0.583c1.324-2.384,0.587-6.846,0.351-7.223c0.285,0.111,0.572,0.218,0.865,0.308
												c1.166,0.333,2.362,0.544,3.556,0.746c1.029,0.156,2.057,0.345,3.098,0.406c0.845,0.054,1.689-0.032,2.526-0.141
												c1.13-0.118,2.228-0.415,3.304-0.772c1.16-0.369,2.302-0.793,3.402-1.317c1.05-0.488,2.104-0.974,3.093-1.58
												c0.21-0.132,0.415-0.27,0.618-0.411c0.079,0.13,0.159,0.26,0.243,0.387c0.717,1.139,1.501,2.237,2.155,3.414
												c0.805,1.508,0.769,1.489,0.459,3.098c-0.331,1.458-0.559,3.746-0.68,4.514c-0.223,1.413-0.436,2.829-0.695,4.237
												c-0.161,0.821-0.383,1.629-0.518,2.455c-0.316,1.914-0.453,3.851-0.607,5.783c-0.221,2.569-0.368,5.145-0.411,7.723
												c-0.08,4.707-0.58,9.395-0.722,14.099c0.013,4.387,0.102,8.773,0.054,13.16c0.026,3.012-0.153,6.023-0.12,9.034
												c0.031,1.856,0.256,3.7,0.354,5.551c0.042,1.047,0.01,2.094-0.105,3.137c-0.16,1.224,0.037,0.477-0.315,1.725
												c-0.428,1.154-1.966,3.02-3.162,4.507c-0.191,0.193-0.688,1.241-0.862,1.557c-0.096,0.138-0.555,1.163-0.315,0.624
												c-0.423,0.764-0.85,2.498-0.927,4.015c-0.108,1.297-0.098,2.6-0.192,3.898c-0.248-0.26-0.499-0.517-0.763-0.762
												c-1.602-1.406-3.346-2.659-5.725-3.474c-2.143-0.681-4.326-1.288-6.568-1.525c-0.209-0.023-0.418-0.046-0.627-0.068
												c0.253-0.336,0.469-0.7,0.632-1.091c0.371-0.854,0.208-0.462,0.661-1.58c0.207-0.469,0.431-0.93,0.697-1.369
												c0.498-0.815,1.094-1.562,1.642-2.342c1.189-1.796,1.564-3.963,1.931-6.047c0.45-2.768,0.718-4.972,1.086-8.036
												c0.35-3.007,0.8-6.006,0.999-9.028c0.064-4.312-0.182-8.641-0.973-12.886c-0.298-1.814-0.536-3.638-0.873-5.445
												c-0.271-1.502-0.634-2.984-0.942-4.479c-0.477-2.381-0.906-4.772-1.539-7.119c-0.745-2.976-2.018-5.789-2.745-8.771
												c-0.569-2.221-1.412-6.734-1.877-8.979c-0.191-0.059-1.029,0.807-1.334,0.689c0.519,2.995,1.407,7.169,2.174,10.109
												c0.524,1.836,1.236,3.612,1.78,5.443c0.641,2.105,1.129,4.257,1.539,6.418c0.689,3.806,1.625,7.564,2.133,11.403
												c0.218,1.391,0.478,2.775,0.677,4.169c0.238,1.934,0.344,3.883,0.417,5.829c0.034,1.218,0.066,2.438,0.024,3.656
												c-0.138,2.002-0.385,3.995-0.64,5.985c-0.389,3.006-0.621,5.293-1.022,7.949c-0.373,2.565-0.827,5.768-1.744,7.509
												c-0.655,1.203-1.613,2.214-2.26,3.424c-0.724,1.359-0.917,2.317-1.959,3.813c-0.59,0.592-3.073,3.108-4.23,4.331
												c-1.371,1.466-2.788,2.908-3.887,4.597c-0.482,0.733-0.853,1.551-0.966,2.428c-0.018,0.156-0.046,0.313-0.06,0.469
												c-0.307,0.311-0.295,0.909,0.136,1.141c0.641,0.295,1.286,0.591,1.967,0.781c0.834,0.225,1.696,0.325,2.542,0.491
												c2.207,0.441,4.434,0.785,6.684,0.896c1.899,0.104,3.786-0.247,5.648-0.582c2.386-0.412,4.799-1.166,6.581-2.883
												c1.087-1.046,1.995-2.347,2.377-3.821c0.384-1.976,0.244-4.011,0.505-6.004c0.004-0.026,0.008-0.053,0.012-0.081
												c0.092-0.572,0.208-1.143,0.366-1.701c0.063-0.262,0.17-0.515,0.217-0.779c-0.003,0.105,0.114-0.355,0.174-0.499
												c0.094-0.356,0.795-1.359,0.917-1.51c0.041,0.019,0.085,0.035,0.132,0.048c1.252,0.228,1.746,0.744,3.059,1.546
												c0.955,0.501,1.845,0.291,2.484-0.575c0.164-0.19,0.402-0.514,0.746-1.182c0.428-0.887,0.554-1.266,0.777-1.791
												c0.546-1.3,0.059-2.234-0.914-3.13c-0.281-0.274-0.577-0.533-0.878-0.784c-0.204-0.208-1.021-0.729-1.633-0.952
												c0.004-0.069,0.013-0.133,0.016-0.204c0.322-2.667-0.033-5.334-0.083-8.004c-0.05-2.969,0.171-5.935,0.162-8.905
												c0.021-2.71,0.034-5.421-0.004-8.132c-0.038-2.178-0.128-4.356-0.071-6.535c0.072-3.139,0.292-6.272,0.386-9.41
												c0.128-2.973,0.112-5.951,0.312-8.921c0.158-2.478,0.392-6.229,0.64-7.883c0.211-1.424,0.942-4.991,1.252-7.229
												c0.214-1.501,0.223-1.831,0.61-3.879c0.212-1.111,0.569-2.313,0.048-3.389c-0.281-0.7-0.727-1.316-1.14-1.942
												c-0.637-0.997-1.312-1.971-1.914-2.991c-0.06-0.094-0.12-0.187-0.18-0.281c0.575-0.482,1.119-1.001,1.63-1.55
												c0.402-0.427,0.37-0.388,0.644-0.686c0.813,2.504,1.276,5.104,1.987,7.638c0.627,2.045,1.558,3.975,2.53,5.874
												c3.663,7.26,4.062,7.149,4.878,15.048c0.267,2.048,0.725,4.073,1.385,6.03c0.453,1.289,1.722,3.987,1.924,4.507
												c0.806,2.062,1.467,4.184,2.022,6.326c1.311,5.067,1.74,9.273,2.083,14.557c0.21,3.661,0.534,7.328,0.324,10.996
												c-0.334,4.73-0.626,8.773-1.4,13.065c-0.614,3.683-1.674,7.271-2.338,10.944c-0.271,1.194-0.334,2.444-0.75,3.599
												c-0.237,0.505-0.57,0.958-0.804,1.465c-0.123,0.256-0.242,0.515-0.349,0.778c0.027-0.064,0.054-0.128,0.081-0.192
												c-0.02,0.045-0.04,0.089-0.06,0.134c-0.122,0.211-0.145,0.479-0.053,0.702c-0.015,0.013-0.031,0.024-0.045,0.039
												c-1.068,1.245-2.025,2.575-2.863,3.986c-0.87,1.418-1.777,2.814-2.598,4.261c-0.443,0.929-1.29,1.89-1.096,2.976
												c0.243,0.926,1.099,1.297,1.984,1.356c0.861,0.091,1.767,0.01,2.548-0.384c0.142-0.069,0.28-0.143,0.417-0.22
												c0.009,0.06,0.02,0.12,0.037,0.18c0.631,1.754,3.176,2.011,4.775,2.247c2.182,0.263,4.389,0.298,6.577,0.08
												c2.778-0.226,5.496-1.178,7.711-2.888c1.741-1.266,2.629-2.411,3.015-4.565c0.175-0.865,0.091-1.746,0.02-2.617
												c-0.112-1.667-0.613-3.268-0.995-4.886c-0.399-1.596-0.59-3.171-0.46-4.166c0.128-0.818,0.423-1.446,0.824-2.142
												c1.042,0.718,2.092,1.697,3.425,1.651c0.932-0.033,1.746-0.785,1.94-1.684c0.138-0.623-0.028-1.263-0.295-1.829
												c-0.191-0.436-0.478-0.826-0.8-1.175c-0.462-0.443-0.606-0.497-0.767-0.632c-0.334-0.251-0.689-0.476-1.065-0.658
												c-0.171-0.072-0.548-0.236-0.166-0.072c-0.081-0.05-0.167-0.083-0.259-0.097c0.457-2.72,0.009-4.754-0.533-7.607
												c-0.554-2.953-0.773-4.659-1.049-7.35c-0.452-4.248-0.571-8.523-0.459-12.792c0.09-4.258,0.666-8.483,0.974-12.726
												c0.224-3.154,0.122-6.316,0.109-9.475c0.056-2.608-0.229-5.198-0.431-7.793c-0.147-2.302-0.117-4.617,0.114-6.912
												c0.165-1.636,0.408-3.228,0.893-5.294c0.472-2.046,1.088-4.151,0.737-6.265c-0.31-1.697-0.796-3.358-1.253-5.02
												c-0.733-2.621-1.561-5.217-2.574-7.744c-1.504-3.868-2.972-6.44-4.005-10.501c-1.369-5.449-1.455-11.1-1.468-17.212
												c-0.023-6.374-0.032-12.748-0.023-19.122c0.101-5.967,0.104-11.937,0.427-17.898c0.408-8.917,1.248-17.806,2.301-26.668
												c0.269-2.345,0.726-5.367,1.336-8.306c0.458-2.294,2.215-11.319,2.292-14.438c1.914,3.685,3.554,7.86,4.881,11.408
												c-0.024-0.006-0.049-0.01-0.073-0.016c1.115,2.913,2.186,7.084,2.706,10.397c0.482,3.119,0.875,7.565,1.288,11.403
												c0.689,6.361,1.159,12.743,1.784,19.11c0.723,8.099,1.511,16.191,2.33,24.281c0.315,3.533,0.406,7.084,0.844,10.606
												c0.567,4.816,1.446,9.6,2.68,14.29c0.988,3.722,1.754,7.502,2.847,11.197c1.484,5.017,3.514,9.946,4.329,11.912
												c0.846,2.041,2.097,3.894,3.73,5.388c2.081,2.006,4.379,3.783,6.367,5.885c0.92,1.028,1.633,2.093,2.618,3.506
												c0.977,1.4,2.066,2.719,3.188,4.004c0.299,0.334,0.607,0.661,0.92,0.982c0.134,0.14,0.326,0.194,0.508,0.17
												c0.168,0.228,0.34,0.453,0.52,0.674c0.788,0.993,1.664,1.916,2.603,2.766c0.222,0.197,0.45,0.386,0.687,0.564
												c0.002,0.002,0.005,0.005,0.014,0.013c0.115,0.115,0.273,0.18,0.435,0.18c0.395,0.007,0.703-0.399,0.594-0.78
												c-0.057-0.226-0.26-0.356-0.406-0.522c-0.674-0.704-0.688-0.737-1.268-1.417c-1.083-1.339-1.34-1.676-2.442-3.342
												c-1.047-1.728-1.987-3.519-3.057-5.233c-1.407-2.366-4.068-5.508-5.275-7.089c-1.566-2.046-2.74-4.352-3.784-6.697
												c-1.07-2.326-2.174-4.636-3.303-6.934c-0.411-0.676-1.458-0.105-1.063,0.622c1.042,2.162,2.056,4.338,2.996,6.547
												c0.995,2.396,2.054,4.784,3.542,6.922c1.842,2.559,3.321,4.163,4.956,6.759c-0.19-0.272-0.384-0.553-0.588-0.847
												c-1.935-2.809-4.712-4.854-7.145-7.2c-1.947-1.775-3.061-3.225-4.129-5.783c-0.557-1.334-2.824-5.889-6.721-21.934
												c-1.305-5.374-2.224-10.164-2.755-15.254c-0.439-4.347-0.496-8.724-1.015-13.064
												c-1.875-17.019-2.979-34.118-5.055-51.114c-0.531-3.65-1.358-7.273-2.61-10.746c-0.022,0-0.044-0.001-0.065-0.001
												c-0.98-2.919-2.147-5.781-3.397-8.591c-0.981-2.098-1.847-4.321-3.234-6.18c-0.044-0.038-0.09-0.068-0.137-0.093
												c-0.244-1.72-0.728-3.582-1.171-4.388c-0.376-0.557-1.311-0.359-1.469,0.286c-0.079,0.476,0.026,0.493,0.183,1.299
												c0.54,2.772,1.779,4.725-1.524,20.838c-0.647,3.156-1.089,6.35-1.445,9.551c-1.249,10.888-2.147,21.823-2.395,32.782
												c-0.16,8.724-0.159,17.449-0.151,26.174c0.026,6.639-0.206,13.35,1.22,19.878c0.574,2.807,1.639,5.476,2.799,8.085
												c1.471,3.278,2.959,7.112,4.146,11.158c0.366,1.21,0.735,2.419,1.059,3.642c0.333,1.234,0.44,1.779,0.268,3.321
												c-0.098,1.107-0.952,3.912-1.296,5.742c-0.512,2.595-0.765,5.241-0.743,7.886c-0.002,2.544,0.384,5.066,0.457,7.606
												c0.032,3.313,0.095,6.628,0.006,9.94c-0.096,2.606-0.397,5.197-0.667,7.789c-0.976,8.91-0.656,17.955,0.918,26.778
												c0.698,3.444,1.367,5.44,0.838,7.976c-0.039,0.369-0.208,0.749-0.136,1.107c-0.194,0.168-0.296,0.422-0.442,0.632
												c-0.503,0.867-1.056,1.705-1.561,2.571c-0.704,1.186-0.969,2.57-0.804,3.935c0.06,1.574,0.759,3.867,1.29,6.044
												c-0.813-0.553-1.689-1.01-2.562-1.459c-0.97-0.482-1.961-0.965-3.034-1.164c-1.921-0.316-3.899-0.705-5.845-0.413
												c-0.88,0.136-1.675,0.54-2.456,0.946c-0.049,0.016-0.099,0.029-0.135,0.038c-0.296,0.009-0.646-0.186-1.318-0.439
												c-0.44-0.175-0.881-0.349-1.324-0.519c-0.09-0.025-0.18-0.061-0.27-0.1c0.134-0.288,0.273-0.573,0.427-0.85
												c0.257-0.45,0.57-0.873,0.764-1.357c0.243-0.518,0.345-1.083,0.438-1.644c0.71-4.471,2.028-8.813,2.779-13.275
												c0.586-3.405,0.972-6.837,1.163-10.286c0.326-3.534,0.285-7.083,0.029-10.62c-0.27-4.386-0.521-8.787-1.221-13.13
												c-0.636-3.595-1.53-7.143-2.761-10.582c-0.576-1.59-1.322-3.112-1.98-4.668c-0.53-1.18-1.44-4.665-1.661-6.734
												c-0.737-7.096-0.963-7.713-4.626-14.71c-1.073-2.105-1.879-3.608-2.543-5.505c-0.703-2.029-1.081-4.153-1.626-6.227
												c-0.466-1.834-1.114-3.615-1.647-5.43c-1.009-3.503-2.099-6.984-3.389-10.396c-1.076-2.853-2.425-5.609-4.096-8.162
												c-1.231-1.874-2.665-3.605-4.076-5.345c-1.816-2.196-3.908-4.143-6.039-6.026c-1.811-1.656-3.688-3.251-5.84-4.451
												c-0.751-0.424-1.528-0.802-2.307-1.17c-0.016-0.006-0.032-0.014-0.048-0.021c0.896-0.656,1.943-1.21,2.839-1.501
												c0.45-0.113,0.744-0.625,0.608-1.072c-0.121-0.449-0.622-0.742-1.072-0.608c-0.915,0.307-1.803,0.704-2.637,1.191
												c-0.999,0.639-1.905,1.411-2.757,2.232c-2.932,2.856-5.223,6.286-7.46,9.693c-1.168,1.78-2.376,3.533-3.501,5.341
												c-1.371,2.316-2.797,4.599-4.308,6.826c-1.098,1.654-2.189,3.317-3.404,4.889c-0.929,1.186-3.698,4.242-5.431,5.936
												c-3.05,3.021-5.416,4.953-9.266,6.862c-0.68,0.354-1.363,0.707-2.066,1.016c-1.287,0.471-2.64,0.752-3.992,0.96
												c-4.168,0.475-10.999,0.943-16.158,1.412c-3.944,0.37-7.862,1.043-11.833,1.064c-4.919,0.15-9.833-0.196-14.75-0.275
												c-8.462-0.087-16.143-0.443-24.016-2.665c-4.996-1.466-10.097-2.503-15.182-3.602c-3.006-0.667-5.945-1.603-8.953-2.262
												c-1.719-0.408-3.455-0.737-5.211-0.937c-1.555-0.206-3.128-0.358-4.697-0.267c-0.336,0.029-0.67,0.071-1.004,0.113
												c0.124-0.386,0.248-0.772,0.372-1.157c0.811-2.477,2.075-5.811,2.814-7.548c0.816-1.677,1.929-3.19,3.016-4.698
												c1.388-1.87,2.645-3.833,3.938-5.769c1.107-1.749,2.343-3.482,2.838-5.521c0.379-1.694,0.532-3.43,0.56-5.163
												c-0.027-1.55-0.144-3.097-0.203-4.647c-0.075-2.443-0.13-4.887-0.215-7.33c-0.104-2.79-0.173-5.583,0.023-8.37
												c0.157-2.547,0.5-5.848,0.66-6.874c0.072-0.259-0.019-0.564-0.244-0.716c-0.201-0.179-0.529-0.187-0.757-0.053
												c-0.254,0.142-0.334,0.426-0.372,0.696c-0.079,0.397-0.152,0.795-0.223,1.193c-0.212,1.223-0.411,2.45-0.566,3.682
												c-0.704,5.696-0.202,11.439-0.037,17.153c0.118,2.508,0.471,5.014,0.253,7.526c-0.088,1.124-0.104,1.271-0.347,2.433
												c-0.1,0.431-0.246,0.849-0.404,1.262c-0.426,0.993-1.027,1.9-1.61,2.808c-0.283-0.106-0.615-0.047-0.861,0.137
												c-0.011,0.003-0.022,0.007-0.033,0.009c-0.106,0.01-0.212,0.018-0.318,0.014c-2.877-0.206-4.758,0.893-6.876,2.703
												c-0.66,0.643-1.152,1.437-1.625,2.221c-0.591,0.953-1.015,1.991-1.352,3.059c-0.512,1.677-0.525,3.45-0.673,5.184
												c-0.129,1.957-0.426,3.473-1.302,4.468c-0.68,0.727-1.405,1.417-2.161,2.064c-0.498,0.368-1.022,0.699-1.519,1.069
												c-0.909,0.655-1.614,1.541-2.207,2.483c-0.791,1.204-1.389,2.518-1.774,3.906c-0.454,1.55-0.649,3.161-0.892,4.753
												c-0.278,1.842-0.594,3.679-1.01,5.495c-0.304,1.413-0.719,2.801-1.26,4.142c-1.625,3.58-3.861,6.914-4.946,10.72
												c-0.532,2.116-0.369,4.323-0.08,6.463c0.234,1.719,0.455,3.443,0.822,5.14c0.319,1.421,0.702,2.828,1.162,4.211
												c0.218,0.54,0.33,1.253,0.63,1.706c0.107,0.143,0.237,0.24,0.376,0.299c-0.113,0.637-0.226,1.274-0.353,1.909
												c-0.286,1.473-0.568,2.947-0.791,4.43c-0.221,1.481-0.451,2.966-0.957,4.382c-0.763,2.216-2.514,4.896-3.329,7.674
												c-0.408,1.277-0.524,2.623-0.494,3.958c-0.022,1.163-0.037,2.327-0.049,3.49c-0.098,4.722,0.047,9.447-0.132,14.167
												c-0.097,3.861-0.794,7.707-0.547,11.573c0.132,1.302,0.375,2.592,0.737,3.849c0.489,1.562,0.837,2.707,0.854,3.904
												c0.036,0.691,0.047,1.383,0.009,2.074c0.012,0.294-0.057,0.597-0.058,0.89c-0.506,0.88-0.998,2.149-1.428,3.143
												c-0.861,2.144-1.932,4.34-2.041,6.678c0.023,1.457,0.429,2.87,0.729,4.286c0.076,0.371,0.128,0.707,0.158,1.03
												c-0.538-0.652-1.108-1.276-1.79-1.784c-2.792-2.211-7.532-4.084-11.678-4.441c-2.265-0.252-4.633,0.069-6.633,1.171
												c0.264-0.539,0.515-1.083,0.745-1.637c0.706-1.834,1.128-3.366,1.783-4.621c0.79-1.558,1.633-3.093,2.289-4.715
												c0.71-1.689,1.21-3.455,1.831-5.177c1.137-2.975,2.389-5.908,3.307-8.963c0.884-2.927,1.739-5.895,1.988-8.953
												c0.271-3.602-0.095-7.219,0.115-10.823c0.116-2.071,0.189-4.165-0.132-6.218c0.263-0.027,0.513-0.164,0.659-0.427
												c1.265-2.439,2.357-4.979,2.947-7.672c0.537-2.123,0.944-4.391,0.266-6.53c-0.392-1.177-0.887-2.315-1.329-3.474
												c-0.42-1.083-0.789-2.185-1.227-3.261c-0.335-0.828-0.693-1.633-0.993-2.285c-0.355-0.722-0.696-1.463-1.205-2.093
												c0.042,0.055,0.085,0.11,0.127,0.165c-0.253-0.363-0.529-0.709-0.808-1.052c-0.437-0.541-1.192-1.375-1.182-1.412
												c-0.178-0.288-0.339-0.586-0.485-0.892c-0.083-0.153-0.146-0.329-0.26-0.46c0.106-0.418,0.219-0.85,0.337-1.299
												c0.721-2.872,1.335-5.77,2.003-8.655c0.579-2.526,1.225-5.04,1.637-7.6c0.403-3.297,0.597-6.62,0.676-9.94
												c0.053-4.605-0.126-9.209-0.405-13.805c-0.135-2.458-0.172-4.92-0.303-7.378c-0.122-1.929-0.196-2.924-0.67-4.951
												c-0.133-0.541-0.292-1.076-0.438-1.614c-0.045-0.165-0.155-0.306-0.302-0.393c-0.204-0.118-0.458-0.116-0.663,0
												c-0.251,0.143-0.382,0.464-0.302,0.742c0.724,2.453,0.823,4.444,0.91,7.193c0.025,1.369,0.048,2.739,0.078,4.108
												c-0.023-0.028-0.044-0.053-0.059-0.071c-0.062-0.082-0.491-0.609-0.879-1.102c-1.031-1.274-3.562-4.865-5.436-7.094
												c-0.671-0.639-1.638,0.32-0.998,0.998c2.027,2.402,3.592,5.017,5.806,7.727c0.276,0.305,0.529,0.687,0.901,0.873
												c0.242,0.121,0.502,0.066,0.698-0.08c0.025,0.896,0.053,1.791,0.091,2.687c0.222,5.326,0.339,10.669,0.035,15.993
												c-0.197,3.194-0.328,5.493-0.956,8.221c-0.935,4.142-1.893,8.279-2.855,12.415c-0.449,1.896-0.992,3.771-1.369,5.684
												c-0.372,2.057-0.567,4.148-0.515,6.239c0.089,2.753,0.643,5.466,1.208,8.154c0.521,2.139,0.959,4.3,1.562,6.418
												c0.604,1.84,1.385,3.621,1.876,5.499c0.288,1.388,0.333,2.096,0.374,3.793c-0.06,2.499-0.237,4.995-0.151,7.497
												c0.046,3.909,0.107,6.998-0.873,10.454c-0.66,2.616-1.469,5.192-2.397,7.726c-0.645,1.748-1.4,3.452-2.061,5.194
												c-0.605,1.621-1.088,3.285-1.732,4.892c-0.447,1.173-1.087,2.434-1.913,4.035c-0.061,0.109-0.116,0.221-0.174,0.331
												c-0.05-0.04-0.1-0.08-0.146-0.121c-0.398-0.327-0.803-0.646-1.224-0.942c-1.071-0.756-2.319-1.214-3.571-1.574
												c-1.196-0.342-2.411-0.623-3.643-0.802c-0.838-0.138-1.684-0.19-2.531-0.197c0.279-0.26,0.544-0.534,0.783-0.834
												c1.527-1.732,3.262-5.623,4.4-8.493c0.723-1.828,1.344-3.695,2.001-5.547c0.921-2.538,1.691-5.131,2.14-7.797
												c0.548-3.199,0.668-6.452,0.78-9.69c0.143-2.939,0.272-5.882,0.159-8.825c-0.094-3.263-0.119-6.53,0.014-9.792
												c0.052-1.049,0.106-2.098,0.174-3.146c0.033-0.468,0.073-0.936,0.109-1.404c0.004-0.096-0.016-0.185-0.06-0.268
												c-0.267-0.653-1.315-0.531-1.332,0.268c-0.055,0.585-0.108,1.17-0.158,1.755c-0.267-1.047-0.604-2.077-0.927-3.108
												c-0.615-1.924-1.284-3.833-1.808-5.785c-0.37-1.465-0.638-3.289-0.73-4.07c-0.314-4,0.099-8.012,0.026-12.018
												c-0.021-2.247-0.221-4.488-0.407-6.726c-0.126-1.785-0.347-3.561-0.689-5.318c-0.028-0.146-0.055-0.292-0.083-0.438
												c1.67-0.07,3.335-0.308,4.918-0.861c1.52-0.475,3.002-1.117,4.307-2.039c0.507-0.374,0.999-0.769,1.453-1.205
												c0.309-0.26,0.635-0.658,0.419-1.077c-0.168-0.481-0.861-0.607-1.206-0.241c-0.081,0.063-0.163,0.128-0.19,0.149
												c-0.006,0.005-0.012,0.009-0.017,0.013c-0.094,0.071-0.085,0.065-0.047,0.037c-0.019,0.015-0.038,0.029-0.057,0.044
												c-0.037,0.029-0.066,0.052-0.09,0.071c-0.402,0.306-0.809,0.606-1.227,0.891c-1.324,0.848-2.023,1.15-3.199,1.561
												c-0.95,0.33-1.911,0.628-2.905,0.793c-0.899,0.16-1.029,0.154-2.185,0.209c-0.102,0.012-0.208,0.013-0.313,0.013
												c-0.027-0.058-0.058-0.114-0.098-0.166c-0.167-0.23-0.4-0.326-0.634-0.324c-0.438-0.241-0.873-0.486-1.311-0.728
												c-1.323-0.815-2.71-1.533-3.98-2.433c-0.619-0.469-2.381-1.87-3.387-2.983c-1.443-1.588-1.979-2.403-3.209-3.998
												c-1.673-2.318-3.393-4.634-4.588-7.244c-0.983-2.089-2.12-5.815-3.139-8.696c-1.062-2.989-2.263-5.927-3.508-8.844
												c-0.921-2.146-1.982-4.531-2.607-6.052c-0.935-2.297-1.847-4.605-2.915-6.844c-2.083-4.455-4.13-7.85-5.279-12.316
												c-0.688-2.613-1.457-5.21-2.047-7.847c0.649,1.103,1.269,2.221,1.794,3.391c1.075,2.046,1.324,3.616,3.355,5.114
												c0.792,0.501,1.742,0.712,2.659,0.847c1.159,0.204,2.33-0.043,3.382-0.546c1.311-0.609,2.401-1.615,3.754-2.15
												c-0.488,0.223,0.541-0.228,0.693-0.26c1.212-0.472,2.346-1.132,3.45-1.816c1.416-0.965,2.793-2.021,4.002-3.238
												c1.175-1.404,2.205-2.932,3.123-4.515c0.507-0.908,1.013-1.827,1.366-2.807c0.421-1.24,0.65-2.53,0.797-3.828
												c0.036,0.073,0.07,0.147,0.102,0.222c0.031,0.081,0.09,0.234,0.118,0.321c0.108,0.332,0.221,0.663,0.32,0.997
												c0.348,1.124,0.631,2.267,0.992,3.387c0.201,0.603,0.39,1.219,0.726,1.763c0.294,0.488,0.648,0.937,0.983,1.397
												c0.378,0.478,0.725,0.995,1.196,1.387c0.533,0.433,1.138,0.771,1.764,1.048c1.604,0.651,3.534,0.546,4.567,1.232
												c1.261,0.704,2.42,1.57,3.621,2.37c1.602,1.04,2.36,1.567,3.797,2.936c2.498,2.309,4.269,4.177,5.633,7.071
												c0.923,1.83,1.109,3.426,1.161,5.8c-0.012,2.019-0.285,4.053,0.025,6.06c0.196,1.838,1.181,3.46,2.375,4.83
												c0.5,0.552,0.996,1.115,1.559,1.604c1.069,0.87,2.249,1.595,3.438,2.288c1.329,0.748,2.965,1.109,4.458,0.712
												c1.294-0.42,2.595-0.957,3.635-1.854c0.819-0.71,1.459-1.597,2.15-2.426c0.919-1.157,1.847-2.309,2.688-3.524
												c1.072-1.469,1.777-3.153,2.674-4.725c0.474-0.843,1.165-1.509,1.948-2.616c1.673-2.246,3.024-4.839,3.184-7.681
												c0.113-2.543-0.117-5.087-0.189-7.629c-0.085-1.949-0.034-3.9,0.085-5.847c0.039-0.644,0.084-1.288,0.168-1.928
												c0.134-0.816,0.102-0.678,0.542-1.322c0.787-0.936,2.643-1.523,3.637-2.988c2.254-3.44,1.841-7.258,1.105-11.097
												c-0.535-2.737-0.794-4.346-0.976-7.202c-0.18-2.545-0.234-5.118-0.799-7.616c-0.387-1.395-0.937-2.754-1.664-4.007
												c-0.885-1.291-1.92-2.472-2.948-3.65c-0.624-0.709-1.27-1.402-1.849-2.15c-1.008-1.594-1.408-2.398-1.754-4.051
												c-0.528-2.823-0.47-7.077-0.721-10.647c-0.284-4.036-1.247-8.054-3.215-11.611c-1.242-2.152-2.934-4.002-4.466-5.948
												c-1.282-1.573-2.737-3.66-4.501-5.628c-1.535-1.73-3.125-3.572-4.062-4.95c-1.21-1.742-2.074-3.686-3.193-5.481
												c-0.685-1.002-1.474-1.955-2.43-2.708c-0.926-0.735-1.974-1.293-3.058-1.755c-2.278-1.008-4.628-1.884-6.792-3.127
												c-1.325-0.829-2.552-1.806-3.879-2.633c-1.32-0.852-2.9-1.628-3.748-1.965c-0.7-0.277-1.403-0.551-2.117-0.793
												c1.197-0.455,2.401-0.888,3.651-1.184c1.561-0.429,3.166-0.651,4.764-0.896c2.322-0.375,5.148-0.68,6.762-0.903
												c1.737-0.231,3.488-0.141,5.229-0.006c1.433,0.091,2.868,0.169,4.294,0.344c2.074,0.334,4.137,0.729,6.198,1.135
												c2.379,0.543,4.763,1.065,7.18,1.417c2.086,0.328,4.142,0.822,6.23,1.139c3.22,0.482,6.464,0.794,9.705,1.097
												c6.063,0.556,12.158,0.596,18.238,0.85c3.604,0.111,7.212,0.15,10.802,0.511c2.678,0.247,5.364,0.408,8.045,0.623
												c-0.409,0.387-0.787,0.806-1.17,1.219c-0.514,0.564-1.037,1.144-1.362,1.842c-0.345,0.743-0.562,1.535-0.749,2.33
												c-0.216,0.869-0.406,1.749-0.447,2.647c-0.271,2.636,1.406,4.099,3.416,5.428c0.532,0.317,1.98,1.701,2.837,2.747
												c0.673,0.817,0.542,0.569,1.047,1.444c0.412,0.799,0.329,0.514,0.557,1.42c0.001,0.032,0.001,0.063,0.001,0.095
												c-0.015,0.535-0.132,0.858-0.49,1.527c-0.438,0.681-0.172,0.425-0.782,0.993c-1.062,0.691-2.128,1.096-3.71,0.76
												c-1.016-0.251-0.969-0.304-1.907-0.736c-0.221-0.088-0.424-0.25-0.66-0.289c-5.391-2.799-10.683-5.782-16.05-8.625
												c-1.776-0.983-3.536-1.997-5.345-2.92c-1.083-0.539-2.141-1.187-3.349-1.394c-1.251-0.193-2.582-0.375-3.752,0.23
												c-3.218,1.971-4.705,5.763-5.342,9.331c-0.273,1.563,0.049,3.142,0.286,4.689c0.576,3.23,1.837,6.295,2.358,9.535
												c0.446,2.699,0.691,4.593,0.872,7.443c0.223,3.348,0.211,4.467,2.369,7.211c1.146,1.421,2.187,2.609,3.389,4.215
												c3.164,3.982,4.355,9.068,6.975,13.371c1.073,1.621,2.392,3.086,3.84,4.38c2.143,1.667,4.373,3.22,6.534,4.863
												c0.523,0.424,2.14,1.647,3.114,2.746c1.387,1.505,1.737,2.192,3.004,3.684c1.111,1.295,2.343,2.48,3.547,3.688
												c0.69,0.706,1.454,1.347,2.069,2.121c-0.006-0.002,0.421,0.56,0.522,0.708c0.43,0.622,0.87,1.244,1.193,1.93
												c0.229,0.583,0.373,1.196,0.547,1.798c0.8,2.979,0.147,7.247,0.693,11.082c0.387,2.086,1.061,4.213,2.514,5.81
												c1.414,1.453,3.141,2.611,5.011,3.392c2.518,0.93,5.185,1.386,7.707,2.307c2.13,0.77,3.028,1.063,4.884,2.093
												c2.739,1.555,5.271,3.493,8.168,4.759c1.532,0.674,3.198,0.938,4.844,1.166c2.193,0.223,4.423,0.178,6.565-0.381
												c1.821-0.42,3.546-1.181,5.143-2.145c1.467-0.836,2.856-1.807,4.108-2.941c1.319-1.182,2.51-2.502,3.866-3.647
												c0.895-0.711,1.709-1.299,3.143-2.167c0.521-0.296,1.059-0.559,1.606-0.802c1.295-0.529,2.595-1.054,3.95-1.408
												c1.313-0.313,2.664-0.447,3.972-0.781c2.4-0.648,4.687-1.644,6.862-2.84c1.862-0.965,3.615-2.142,5.215-3.498
												c1.46-1.313,2.68-2.87,4.112-4.214c3.103-2.792,9.103-4.757,13.048-7.806c1.276-0.967,2.517-2.001,3.537-3.243
												c0.925-1.149,1.84-2.322,2.517-3.638c1.201-2.431,2.026-5.027,2.948-7.572c0.891-2.632,1.53-4.159,2.576-6.428
												c0.574-1.196,1.134-2.4,1.66-3.617c0.019-0.037,0.032-0.077,0.045-0.116c0.291-0.679,0.563-1.374,0.626-2.116
												c0.055-1.107-0.637-2.152-1.504-2.792c-0.745-0.528-1.651-0.769-2.487-1.115c-2.926-1.06-5.872-2.066-8.813-3.085
												c-1.833-0.638-2.671-0.971-4.095-1.692c-0.878-0.436-1.668-1.015-2.444-1.609c-1.118-0.947-1.554-1.262-2.12-2.216
												c-0.974-1.72-1.33-2.404-1.852-4.302c-0.307-1.547,0.078-3.952,0.441-6.095c0.602-3.557,0.637-7.167,0.868-10.758
												c0.09-1.573,0.189-3.146,0.28-4.719c0.063-1.26,0.13-2.529-0.051-3.782c-0.208-1.524-0.482-3.057-1.103-4.474
												c-1.083-2.152-3.124-4.457-4.043-5.732c-0.779-1.024-1.437-2.51-1.614-2.995c-0.498-1.255-1.055-2.684-2.042-3.639
												c1.642,0.006,3.284-0.034,4.925-0.053c3.975,0.034,7.93-0.355,11.868-0.859c3.637-0.296,6.449,0.99,9.566,2.392
												c2.59,1.165,5.214,2.253,7.82,3.38c2.855,1.298,5.755,2.488,8.689,3.594c2.979,1.205,6.05,2.159,9.037,3.343
												c2.407,0.925,4.224,1.883,6.939,3.182c2.613,1.25,7.99,3.294,12.525,6.834c6.814,5.317,12.018,11.011,14.945,19.431
												c1.141,2.738,2.28,5.488,3.002,8.373c0.205,0.804,0.429,1.603,0.661,2.399c-0.03-0.002-0.06,0.001-0.09-0.001
												c1.697,5.884,2.78,11.935,3.674,17.988c1.281,7.773,2.086,14.905,2.89,22.974c0.43,3.933,0.933,7.859,1.234,11.805
												c0.432,6.451,0.641,12.931,1.513,19.342c0.78,5.521,2.697,10.796,4.397,16.083c0.738,2.294,3.712,7.577,5.133,10.011
												c0.893,1.529,1.92,2.979,2.993,4.386c2.38,3.04,5.561,5.309,8.358,7.938c2.312,2.105,4.362,4.034,5.747,6.289
												c1.165,1.88,2.179,3.863,3.544,5.612c1.943,2.525,4.305,4.698,6.908,6.53c-0.935-0.268-1.871-0.535-2.777-0.891
												c-1.069-0.462-2.014-0.888-3.379-1.692c-1.811-1.175-3.173-2.319-4.924-4.105c-2.426-2.324-3.837-4.691-5.817-7.65
												c-1.368-2.049-2.678-4.163-4.196-6.098c-0.519-0.432-1.302,0.225-0.941,0.826c2.666,3.705,4.901,7.701,7.576,11.398
												c1.768,2.2,3.736,4.292,5.98,6.018c-0.256-0.148-0.512-0.297-0.772-0.453c-0.984-0.625-1.982-1.528-2.938-2.717
												c-0.444-0.547-0.468-0.607-0.966-1.256c-0.075-0.128-0.198-0.222-0.34-0.262c-0.467-0.144-0.909,0.417-0.643,0.837
												c1.012,1.383,2.066,2.762,3.422,3.828c2.139,1.591,4.591,2.811,7.041,3.85c1.685,0.67,4.815,1.679,5.809,2.122
												c0.892,0.387,1.759,0.833,2.536,1.421c0.322,0.223,0.632,0.461,0.942,0.699c1.364,1.05,2.361,2.738,2.767,3.821
												c0.137,0.362,0.271,0.726,0.397,1.092c0.086,0.357,0.272,0.771,0.692,0.791c0.349,0.07,0.704-0.185,0.798-0.521
												C484.615,323.478,484.478,323.185,484.425,322.899z M354.823,383.356c0.625-0.807,1.306-1.567,2.027-2.288
												c1.523-1.587,3.103-3.115,4.705-4.621c0.039,0.02,0.081,0.036,0.126,0.049c-0.283,0.218-0.492,0.556-0.75,0.798
												c-0.632,0.739-1.224,1.512-1.876,2.233c-1.586,1.732-3.309,3.336-4.965,5.001
												C354.331,384.022,354.631,383.582,354.823,383.356z M374.674,384.524c-0.769,0.672-0.793,0.707-1.859,1.256
												c-1.013,0.523-1.625,0.67-3.111,1.002c-2.295,0.458-3.513,0.732-5.543,0.787c-3.243-0.028-6.415-0.535-8.764-0.834
												c-0.429-0.056-0.849-0.158-1.258-0.294c0.565-0.414,1.068-0.902,1.564-1.396c1.32-1.332,2.687-2.618,3.967-3.989
												c0.877-0.971,1.675-2.008,2.5-3.023c0.22-0.332,0.636-0.603,0.645-1.032c0.004-0.146-0.044-0.28-0.125-0.391
												c1.745,0.201,3.254,0.479,5.291,1.093c2.211,0.608,3.374,1.07,5.308,2.273c0.879,0.541,1.38,1.01,2.311,1.954
												c0.197,0.171,0.367,0.418,0.564,0.616C375.602,383.577,375.536,383.646,374.674,384.524z M384.581,367.064
												c0.322,0.265,0.636,0.54,0.933,0.833c0.428,0.433,0.376,0.405,0.469,0.543c0.022,0.04,0.037,0.068,0.05,0.092
												c0.012,0.036,0.022,0.072,0.03,0.109c0.002,0.048,0.004,0.109,0.002,0.168c-0.007,0.028-0.018,0.067-0.033,0.12
												c-0.209,0.648-0.699,1.69-1.417,2.683c-0.001,0.001-0.001,0.002-0.002,0.003c-0.015,0.018-0.03,0.037-0.045,0.055
												c-0.031,0.038-0.065,0.073-0.099,0.109c-0.032-0.008-0.063-0.015-0.094-0.025c-0.081-0.045-0.3-0.16-0.382-0.229
												c-0.772-0.558-1.569-1.12-2.501-1.371c0.305-0.387,0.571-0.729,0.737-0.945c0.749-0.911,1.283-1.759,1.596-2.732
												C384.111,366.722,384.46,366.971,384.581,367.064z M418.711,377.916c0.194-0.401,0.566-0.795,0.524-1.255
												c0.07,0.035,0.143,0.066,0.215,0.096c0.135,0.066,0.618,0.297,0.731,0.385c0.865,0.446,1.296,1.412,1.341,1.798
												c0.015,0.09,0.013,0.203,0.01,0.263c-0.011,0.044-0.023,0.088-0.035,0.123c-0.024,0.046-0.05,0.091-0.079,0.134
												c-0.011,0.012-0.021,0.023-0.036,0.039c-0.024,0.024-0.05,0.045-0.076,0.067c-0.043,0.029-0.087,0.055-0.132,0.079
												c-0.017,0.005-0.033,0.01-0.05,0.014c-0.082,0.006-0.164,0.004-0.245-0.002c-0.055-0.012-0.124-0.03-0.181-0.054
												c-0.04-0.016-0.072-0.028-0.098-0.038c-0.327-0.146-0.626-0.345-0.925-0.541c-0.245-0.166-0.486-0.338-0.726-0.512
												c-0.141-0.084-0.27-0.204-0.408-0.305C418.599,378.112,418.654,378.016,418.711,377.916z M402.746,390.356
												c0.069-0.093,0.253-0.488,0.33-0.655c0.006-0.014,0.012-0.029,0.018-0.043c-0.001,0.003-0.002,0.007-0.003,0.009
												c0.001-0.001,0.001-0.003,0.002-0.004c0.001-0.003,0.001-0.004,0.002-0.007c0.004-0.009,0.007-0.018,0.011-0.027
												c0.017-0.039,0.034-0.078,0.05-0.118c-0.001,0.001-0.003,0.004-0.004,0.005c0.111-0.278,0.207-0.587,0.119-0.871
												c0.557-0.197,0.755-0.456,1.711-0.675c0.716-0.205,2.143-0.111,3.471,0.031c1.257,0.207,1.714,0.062,3.49,0.702
												c0.678,0.285,2.607,1.161,3.817,1.873c0.498,0.309,0.647,0.441,0.824,0.59c0.019,0.015,0.037,0.031,0.055,0.048
												c0.007,0.09,0.015,0.185,0.024,0.293c0.068,1.242,0.059,1.32-0.238,2.345c-0.279,0.81-0.123,0.556-0.512,1.156
												c-0.025,0.036-0.046,0.065-0.064,0.091c-0.302,0.374-0.644,0.715-1.017,1.019c-1.884,1.529-4.272,2.463-6.473,2.765
												c-3.43,0.455-8.995,0.193-10.324-0.761c-0.038-0.031-0.075-0.064-0.109-0.098c0-0.004,0-0.008,0-0.012
												C398.363,397.056,401.458,392.688,402.746,390.356z M401.058,388.462c0.232,0.082,0.464,0.173,0.701,0.247
												c-0.069,0.38-0.374,0.76-0.788,1.441c-0.819,1.292-1.669,2.563-2.535,3.824c-0.392,0.581-0.776,1.166-1.145,1.762
												c-0.155,0.131-0.313,0.259-0.473,0.385c-0.066,0.048-0.144,0.109-0.179,0.137c-0.035,0.027-0.07,0.055-0.102,0.079
												c-0.447,0.348-0.925,0.653-1.443,0.883c-0.019,0.009-0.038,0.017-0.057,0.025c-0.112,0.04-0.389,0.14-0.526,0.161
												c-0.001,0-0.002,0-0.003,0c-0.014,0.002-0.026,0.004-0.037,0.004c-0.005,0.001-0.008,0.001-0.012,0.002
												c-0.043,0.005-0.086,0.011-0.13,0.015c-0.339,0.04-0.681,0.037-1.02,0.004c-0.164-0.027-0.328-0.058-0.486-0.11
												c-0.018-0.017-0.035-0.035-0.052-0.053c-0.011-0.018-0.022-0.036-0.032-0.055c-0.001-0.002-0.001-0.005-0.002-0.007
												c0.015-0.069,0.037-0.159,0.061-0.218c0.849-1.673,2.934-4.905,4.298-7.102c0.618-0.927,0.803-1.17,1.338-1.821
												c0.115-0.16,0.254-0.306,0.385-0.457C399.566,387.888,400.313,388.171,401.058,388.462z M340.658,296.953
												c-0.055,0.038-0.095,0.062-0.12,0.077c-0.082,0.025-0.167,0.044-0.203,0.053c-0.097,0.009-0.194,0.013-0.291,0.009
												c-0.069-0.017-0.143-0.041-0.195-0.059c-0.181-0.086-0.352-0.192-0.514-0.312c-0.061-0.055-0.377-0.322-0.452-0.433
												c-0.631-0.792-1.494-3.073-2.039-5.05c-0.097-0.348-0.188-0.697-0.28-1.047c1.389-0.212,2.763-0.541,4.148-0.779
												c-0.085,0.612-0.141,1.227-0.146,1.845C340.547,293.354,341.12,296.447,340.658,296.953z M354.671,291.552
												c-0.004,0.021-0.01,0.047-0.017,0.087c-0.006-0.031-0.083,0.651-0.095,1.215c-0.101,1.369-0.272,3.501-0.366,4.154
												c-0.096,0.856-0.417,1.303-0.655,1.588c-0.023,0.023-0.048,0.043-0.073,0.065c-0.059,0.038-0.148,0.094-0.219,0.128
												c-0.083,0.046-0.166,0.09-0.251,0.131c-0.028,0.009-0.061,0.019-0.096,0.028c-0.086,0.004-0.172-0.001-0.258-0.008
												c-0.003-0.001-0.005-0.001-0.009-0.002c-0.039-0.009-0.077-0.02-0.115-0.033c-0.507-0.302-0.303-0.117-0.693-0.583
												c-0.33-0.439-0.579-0.931-0.799-1.433c-0.164-0.403-0.252-0.83-0.334-1.256c-0.017-0.102-0.035-0.205-0.052-0.307
												c-0.003-0.027-0.006-0.057-0.01-0.094c-0.093-0.964-0.049-1.938,0.058-2.899c0.036-0.325,0.072-0.651,0.11-0.976
												c0.002-0.05,0.008-0.1,0.015-0.151c0.044,0.012,0.087,0.025,0.131,0.037c1.195,0.289,2.431,0.363,3.656,0.279
												c0.026-0.002,0.052-0.006,0.078-0.008C354.674,291.526,354.673,291.539,354.671,291.552z M361.156,294.691
												c-0.016,0.517-0.305,1.903-0.732,2.478c-0.004,0.006-0.006,0.009-0.01,0.014c-0.027,0.029-0.054,0.056-0.08,0.08
												c-0.055,0.038-0.114,0.07-0.173,0.1c-0.06,0.019-0.121,0.035-0.183,0.051c-0.063,0.005-0.127,0.005-0.19,0.003
												c-0.079-0.016-0.157-0.036-0.233-0.062c-0.047-0.024-0.09-0.054-0.134-0.083c-0.007-0.006-0.011-0.01-0.019-0.017
												c-0.032-0.033-0.053-0.057-0.074-0.079c-0.026-0.039-0.054-0.077-0.076-0.119c-0.342-0.638-0.518-6.289-0.565-6.35
												c0.518-0.169,1.029-0.36,1.526-0.582c-0.024,0.23,0.749,2.074,0.879,3.031c0.003,0.023,0.007,0.05,0.011,0.082
												c0,0.001,0,0.001,0,0.002c0.001,0.01,0.002,0.017,0.004,0.027c-0.001-0.009-0.002-0.015-0.003-0.023
												C361.128,293.531,361.205,294.48,361.156,294.691z M328.835,285.443c2.87-1.885,5.408-4.232,7.758-6.723
												c1.631-1.714,3.234-3.461,4.676-5.337c1.607-2.127,3.019-4.392,4.493-6.611c1.196-1.787,2.245-3.666,3.389-5.485
												c1.167-1.84,2.405-3.632,3.592-5.459c2.378-3.573,4.167-6.32,7.173-9.149c1.838,0.844,3.614,1.814,5.249,3.01
												c0.677,0.471,2.074,1.761,3.14,2.709c2.473,2.191,4.858,4.495,6.882,7.115c1.303,1.617,2.327,2.921,3.565,4.953
												c3.394,5.585,5.069,11.967,7.106,18.51c-0.327,0.248-0.572,0.617-0.873,0.892c-0.918,0.913-1.752,1.64-2.344,2.043
												c-1.46,1.056-3.108,1.795-4.756,2.503c-0.508,0.236-2.691,0.997-4.05,1.348c-1.125,0.265-1.635,0.313-2.237,0.392
												c-1.147,0.147-2.307,0.042-3.452-0.074c-1.61-0.177-2.024-0.203-3.667-0.507c-0.742-0.134-1.457-0.371-2.158-0.645
												c1.111-0.851,2.254-2.111,3.108-3.625c0.512-0.863,1.074-1.693,1.631-2.526c0.311-0.504,0.89-0.984,0.174-1.547
												c-0.55-0.32-0.982,0.238-1.288,0.63c0.038-0.049,0.075-0.097,0.113-0.146c-0.03,0.032-0.058,0.067-0.087,0.101
												c-0.607,0.72-1.159,1.456-1.834,2.613c-0.695,1.105-0.822,1.36-1.659,2.228c-1.076,1-2.085,1.552-3.304,1.988
												c-1.771,0.639-3.35,0.93-4.642,1.061c0.208-0.03,0.299-0.035,0.039-0.011c-1.121,0.098-2.173,0.055-2.686-0.05
												c-0.738-0.11-1.447-0.352-2.145-0.607c-0.943-0.357-1.033-0.393-2.035-1.024c-0.058-0.038-0.116-0.076-0.173-0.114
												c0.013-0.011,0.029-0.021,0.041-0.033c0.195-0.189,0.256-0.472,0.193-0.732c-0.18-0.667-0.943-0.555-1.482-0.572
												c-1.952-0.018-3.786,0.789-5.688,1.114c-1.556,0.223-3.09,0.57-4.643,0.81c-0.527,0.136-2.818,0.188-3.488-0.038
												c-2.119-0.565-3.056-1.073-5.008-2.145c-0.017-0.009-0.033-0.017-0.05-0.025
												C327.894,286.015,328.373,285.744,328.835,285.443z M199.738,318.674c-0.304-1.933-0.48-5.023-0.223-6.018
												c0.484-2.35,1.111-3.394,1.968-5.207c1.02-2.051,2.126-4.063,3.039-6.165c1.171-2.901,1.683-6.007,2.182-9.079
												c0.301-1.98,0.509-3.988,1.102-5.909c0.427-1.367,0.516-1.556,1.293-2.89c0.587-0.996,0.71-1.231,1.251-1.798
												c0.388-0.445,1.305-0.907,2.208-1.632c0.555-0.41,1.014-0.928,1.497-1.417c0.711-0.693,1.333-1.487,1.691-2.421
												c0.926-2.38,0.762-5.975,1.133-7.626c0.436-1.827,0.735-2.467,1.605-3.968c0.695-1.128,0.817-1.368,1.953-2.276
												c0.59-0.399,1.615-1.34,2.849-1.616c0.622-0.172,0.866-0.136,1.856-0.115c0.053,0.003,0.106,0.006,0.16,0.01
												c-0.415,0.628-0.831,1.256-1.245,1.885c-0.839,1.283-1.706,2.547-2.625,3.774c-1.05,1.438-2.136,2.883-2.837,4.531
												c-2.113,5.175-3.814,10.51-5.266,15.906c-0.587,2.176-0.979,4.396-1.515,6.584c-0.6,2.335-1.355,4.626-2.072,6.927
												c-0.936,2.882-2.056,5.698-3.023,8.57c-1.385,4.01-2.91,7.972-4.218,12.008c-0.509,1.673-0.964,3.363-1.346,5.07
												C200.446,323.253,199.956,320.703,199.738,318.674z M196.284,393.324c0.165-0.401,0.394-0.826,0.585-1.192
												c0.012-0.012,0.022-0.025,0.033-0.037c0.209,0.172,0.47,0.314,0.696,0.476c0.89,0.791,1.077,0.952,1.483,1.789
												c0.016,0.034,0.031,0.07,0.046,0.105c0.044,0.117,0.087,0.319,0.107,0.416c0.002,0.066,0.001,0.134-0.001,0.184
												c-0.008,0.033-0.013,0.053-0.015,0.062c-0.376,0.462-2.343,0.871-3.969,1.34c-0.077,0.021-0.155,0.042-0.232,0.063
												C195.513,395.195,196.119,393.708,196.284,393.324z M182.682,343.914c-0.634-2.308-1.128-4.653-1.668-6.985
												c-0.575-2.945-0.95-4.734-1.01-7.546c-0.021-2.243,0.196-4.064,0.597-6.006c1.019,1.243,1.714,1.746,2.322,3.013
												c0.727,1.651,1.87,5.229,2.716,7.664c0.391,1.142,0.892,2.257,1.074,3.457c0.002,0.023,0.006,0.046,0.008,0.068
												c0.04,0.583,0.014,1.171-0.025,1.753c-0.165,1.327-0.944,4.872-1.751,7.043c-0.37,0.997-0.432,1.081-0.805,1.869
												C183.696,346.788,183.146,345.365,182.682,343.914z M179.702,402.021c2.455,0.33,5.763,1.309,7.396,2.053
												c1.674,0.782,2.934,1.451,4.005,2.538c0.468,0.486,0.896,1.009,1.316,1.536c-0.036-0.048-0.05-0.074,0.014,0.017
												c0.002,0.002,0.003,0.005,0.005,0.007c0.014,0.017,0.028,0.034,0.041,0.052c-0.008-0.009-0.016-0.019-0.024-0.029
												c0.083,0.112,0.17,0.231,0.271,0.328c-0.04,0.232-0.089,0.477-0.148,0.741c-0.463,1.952-1.759,4.154-2.73,5.32
												c-0.719,0.792-0.699,0.758-1.664,1.341c-3.849,1.066-6.947,1.083-11.169,1.467c-2.01,0.159-4.03,0.145-6.042,0.016
												c-1.032-0.079-1.096-0.088-2.27-0.317c-0.69-0.156-0.482-0.071-0.981-0.333c-0.01-0.009-0.019-0.019-0.028-0.029
												c-0.002-0.004-0.004-0.009-0.006-0.013c-0.023-0.068-0.042-0.137-0.055-0.207c-0.001-0.031-0.003-0.072-0.002-0.121
												c0.049-1.879,2.052-4.214,4.1-6.559c1.097-1.267,2.057-2.643,3.007-4.02c0.464-0.681,0.886-1.391,1.24-2.136
												c0.146-0.364,0.469-0.717,0.351-1.131c-0.074-0.309-0.34-0.492-0.625-0.526
												C177.003,401.779,178.831,401.895,179.702,402.021z M175.116,402.158c0.021-0.007,0.045-0.013,0.067-0.019
												c-0.08,0.056-0.15,0.131-0.202,0.226c-1.088,2.272-2.626,4.19-3.874,5.752c-1.251,1.471-2.599,2.876-3.642,4.509
												c-0.667,1.118-1.278,2.404-1.286,3.725c-0.228-0.024-0.471,0.036-0.701,0.021c-0.077,0.001-0.226-0.012-0.336-0.023
												c-0.142-0.025-0.284-0.053-0.425-0.084c-0.085-0.02-0.168-0.046-0.249-0.076c-0.04-0.02-0.081-0.04-0.121-0.06
												c-0.095-0.029-0.327-0.178-0.422-0.235c-0.018-0.056-0.034-0.113-0.041-0.172c0.061-0.847,0.163-3.153,1.265-4.682
												c0.326-0.574,1.808-2.048,2.839-2.948c0.579-0.526,1.2-1.007,1.742-1.573c0.526-0.573,0.967-1.219,1.341-1.901
												c0.228-0.417,0.457-0.834,0.682-1.252c0.203,0.133,0.473,0.169,0.76,0.012
												C173.629,402.653,174.08,402.402,175.116,402.158z M163.878,391.889c1.587,0.142,3.704,0.547,5.758,1.221
												c0.82,0.286,1.533,0.598,2.531,1.362c0.009,0.007,0.017,0.013,0.028,0.022c0.285,0.225,0.564,0.457,0.839,0.693
												c0.056,0.056,0.122,0.099,0.191,0.136c-0.55,1.326-0.977,2.704-1.467,4.055c-0.38,0.972-1.384,2.931-2.205,4.459
												c-0.197,0.392-0.444,0.745-0.724,1.078c-0.016-0.042-0.034-0.084-0.056-0.124c-0.495-0.669-0.946-0.34-1.528-0.288
												c-3.154,0.615-5.355,0.971-7.652,1.22c-1.699,0.162-3.396,0.387-5.105,0.396c-1.027-0.004-1.178-0.064-1.858-0.142
												c-0.245-0.018-0.629-0.11-1.134-0.383c0.067-0.036,0.134-0.079,0.198-0.14c2.759-2.681,6.503-6.122,8.592-7.609
												c0.096-0.133,1.17-0.534,0.473-1.461c-0.665-0.629-1.396,0.229-1.96,0.59c-2.796,2.154-5.335,4.614-7.884,7.05
												c0.165-0.485,0.384-0.846,0.755-1.606c0.828-1.669,1.738-2.834,2.651-3.887c1.838-2.038,3.718-4.046,5.695-5.949
												c0.263-0.262,0.543-0.505,0.83-0.743C161.857,391.845,162.869,391.83,163.878,391.889z M56.532,103.472
												c-1.262-2.41-1.257-4.748-1.342-8.071c0.157-5.408,0.213-9.125,4.637-8.715c1.37,0.25,2.792,1.399,3.713,2.126
												c2.569,2.087,4.566,4.736,6.761,7.186c1.404,1.543,3.129,2.767,5.055,3.566c-1.446,0.716-2.777,1.496-4.017,2.34
												c-0.025-0.022-0.046-0.049-0.075-0.068c-1.983-1.282-3.621-4.568-5.371-7.264c-1.256-2.171-2.517-4.673-5.004-5.616
												c-0.638-0.304-1.312-0.505-2.009-0.622c-0.217-0.061-0.455-0.028-0.648,0.085c-0.631,0.345-0.5,1.368,0.201,1.538
												c2.97,0.535,3.926,1.951,5.613,4.913c1.498,2.416,3.006,4.886,4.98,6.947c0.724,0.671,0.772,0.699,1.129,0.938
												c-3.216,2.412-5.812,5.306-8.252,8.721c-0.089-0.147-0.211-0.341-0.394-0.632
												C59.656,107.513,58.156,106.691,56.532,103.472z M126.773,223.684c-0.999-1.368-3.188-4.098-3.704-4.788
												c-1.84-2.405-3.643-4.839-5.521-7.215c-1.997-2.532-4.229-4.866-6.265-7.366c-1.132-1.418-1.646-2.007-2.521-3.352
												c-1.057-1.648-1.91-3.412-2.773-5.166c-1.819-3.656-4.041-7.089-6.491-10.351c0.874-0.415,1.723-0.891,2.608-1.276
												c0.516-0.245,1.037-0.479,1.546-0.739c0.188-0.104,0.411-0.174,0.528-0.365c0.217-0.241,0.224-0.63,0.064-0.903
												c-0.47-0.67-1.055-0.321-1.245-0.235c-0.428,0.178-0.849,0.372-1.275,0.554c-1.172,0.495-2.32,1.041-3.482,1.557
												c-0.378,0.156-0.777,0.249-1.178,0.325c-0.02,0.004-0.04,0.006-0.06,0.01c-1.437,0.064-2.879-0.077-4.317-0.014
												c-2.073,0.04-4.137,0.262-6.2,0.45c-4.229,0.352-8.498,0.377-12.711-0.178c-2.005-0.277-4.74-0.438-5.964-0.662
												c-1.675-0.319-2.764-0.751-3.856-1.279c-1.459-0.664-2.913-1.338-4.354-2.038c-1.355-0.646-2.72-1.327-4.201-1.632
												c-0.363-0.051-0.753-0.188-1.089,0.023c-0.249,0.14-0.384,0.379-0.416,0.632c-0.706,0.206-1.407,0.433-2.128,0.583
												c-1.035,0.233-2.597,0.238-4.258,0.333c-2.273,0.065-4.025-0.338-5.828-1.25c-1.065-0.513-2.105-1.078-3.142-1.645
												c-0.087-0.048-0.175-0.094-0.262-0.141c0.234-0.029,0.552-0.067,1.047-0.125c2.095-0.21,4.206-0.09,6.308-0.122
												c1.408,0.018,2.81-0.121,4.21-0.247c1.964-0.172,3.932-0.328,5.904-0.283c0.822-0.003,1.131-1.102,0.414-1.528
												c-1.226-0.451-4.069-0.329-6.064-0.238c-1.189,0.074-2.377,0.182-3.569,0.204c-2.013,0.011-6.075-0.059-7.033,0.124
												c-2.221,0.257-3.659,0.801-4.815,0.716c-1.028-0.042-2.99-1.157-3.672-2.724c-0.057-0.152-0.154-0.414-0.184-0.508
												c-0.051-0.099-0.107-0.387-0.129-0.501c-0.016-0.141-0.031-0.282-0.042-0.423c-0.09-1.415,0.031-2.844-0.225-4.248
												c-0.228-1.439-0.748-2.81-1.038-4.235c-0.106-0.421-0.248-1.939-0.141-3.024c0.07-1.309,1.336-3.951,2.377-5.042
												c0.709-0.747,0.685-0.721,1.412-1.197c0.921-0.555,0.895-0.555,1.907-0.888c0.728-0.242,2.02-0.136,3.293-0.536
												c1.036-0.353,1.918-1.018,2.797-1.651c1.687-1.197,3.024-2.795,4.181-4.495c3.053-4.361,5.814-8.93,8.152-13.714
												c0.129-0.096,0.233-0.236,0.283-0.425c1.799-6.503,3.991-11.069,7.689-17.196c3.681-5.882,7.666-10.793,14.061-13.856
												c4.118-2.338,9.252-2.921,13.957-3.545c6.176-1.126,11.363-2.216,17.396-2.654c0.091-0.006,0.178-0.009,0.267-0.014
												c-2.35,0.969-4.679,1.999-7.131,2.682c-2.055,0.569-4.136,1.053-6.157,1.737c-1.421,0.484-2.87,1.022-4.061,1.957
												c-1.929,1.543-3.409,3.532-4.917,5.467c-0.971,1.273-2.007,2.499-2.923,3.814c-0.545,0.773-0.95,1.63-1.417,2.45
												c-1.66,2.996-3.827,5.667-5.624,8.578c-1.779,2.734-3.126,5.714-4.773,8.523c-0.788,1.31-1.734,2.514-2.604,3.769
												c-0.53,0.884-0.982,1.824-1.306,2.803c-0.468,1.749-0.487,3.592-0.59,5.391c-0.009,1.772-0.009,3.619,0.705,5.273
												c0.391,0.743,0.919,1.438,1.597,1.942c1.109,0.687,3.063,1.236,3.669,1.556c1.225,0.695,1.983,1.427,3.021,2.738
												c1.4,1.759,3.532,5.518,5.975,7.284c0.782,0.622,1.708,1.003,2.632,1.359c1.653,0.632,3.443,1.017,5.216,0.813
												c2.509-0.102,4.555-1.675,6.43-3.19c2.13-1.66,3.403-2.862,5.302-4.116c0.722-0.458,1.399-0.992,2.142-1.416
												c0.082-0.002,0.164-0.001,0.245,0.003c0.041,0.002,0.082,0.005,0.123,0.009c0.642,0.133,1.271,0.326,1.908,0.485
												c4.449,1.172,6.176,1.082,9.911-1.785c0.696-0.544,1.367-1.151,1.846-1.9c0.523-0.858,0.885-1.987,1.166-2.455
												c0.573-0.927,0.599-1.129,1.229-1.426c0.034-0.012,0.149-0.057,0.251-0.083c0.022-0.002,0.045-0.003,0.067-0.005
												c0.411,0.144,0.914,0.82,1.079,1.473c0.53,1.894,0.436,3.782,0.412,6.12c-0.076,4.001-0.415,6.639-0.921,9.664
												c-0.546,3.298-1.314,6.57-1.612,9.904c-0.102,1.299,0.02,2.598,0.108,3.894c0.055,0.925,0.022,1.852,0.008,2.778
												c-0.045,2.823-0.28,5.645-0.18,8.469c0.087,2.132,0.451,4.238,0.911,6.318c0.535,2.391,0.924,4.84,1.83,7.127
												c1.03,2.693,2.158,4.397,2.88,6.867c0.35,1.11,0.529,2.168,0.549,2.765c0.005,1.212-0.1,2.443,0.312,3.609
												c0.161,0.488,0.343,0.966,0.752,1.818c0.291,0.572,0.62,1.125,0.873,1.715c0.494,1.329,0.981,2.667,1.536,3.974
												c0.053,0.342,0.106,0.684,0.159,1.026C127.367,224.53,127.077,224.102,126.773,223.684z M166.125,127.378
												c0.606,0.202,2.897,1.485,4.08,2.349c1.253,0.849,2.402,1.848,3.703,2.624c1.989,1.082,5.244,2.32,7.216,3.164
												c0.759,0.36,1.499,0.771,2.17,1.278c0.297,0.244,0.571,0.515,0.84,0.789c0.137,0.151,0.279,0.296,0.41,0.452
												c0.096,0.115,0.196,0.227,0.291,0.343c0.056,0.071,0.111,0.142,0.167,0.213c0.776,1.083,1.363,2.281,2.001,3.447
												c0.784,1.394,1.642,2.751,2.656,3.991c1.402,1.787,2.96,3.443,4.397,5.2c0.828,1.022,2.082,2.733,3.319,4.275
												c1.812,2.297,3.125,3.616,4.516,6.348c0.876,1.708,1.125,2.571,1.714,4.579c0.317,1.171,0.518,2.369,0.691,3.568
												c0.36,2.864,0.358,5.759,0.574,8.635c0.14,1.617,0.247,3.253,0.683,4.823c0.61,2.066,1.814,3.9,3.311,5.433
												c1.346,1.563,2.208,2.524,3.203,4.007c1.494,2.649,1.777,4.938,1.981,8.169c0.136,2.651,0.306,5.302,0.741,7.923
												c0.284,1.679,0.642,3.345,0.881,5.032c0.14,1.248,0.183,2.512,0.037,3.76c-0.121,0.765-0.385,1.498-0.681,2.211
												c-0.376,0.823-0.57,1.155-0.938,1.494c-0.408,0.492-2.035,1.246-2.938,2.15c-0.348,0.408-0.692,0.836-0.881,1.344
												c-0.317,0.941-0.337,1.962-0.424,2.945c-0.121,1.875-0.199,3.754-0.132,5.633c0.244,7.916,1.461,9.911-3.304,16.002
												c-0.397,0.509-0.817,1.002-1.156,1.553c-0.605,0.989-1.062,2.06-1.632,3.068c-0.925,1.606-1.956,2.945-2.825,4.043
												c-0.776,0.996-2.438,3.032-2.842,3.297c-0.241,0.189-0.491,0.367-0.76,0.515c-0.123,0.073-0.249,0.141-0.378,0.204
												c-0.164,0.082-0.33,0.158-0.499,0.228c-0.559,0.234-1.125,0.465-1.721,0.58c-0.297,0.029-0.597,0.024-0.894-0.003
												c-1.114-0.214-1.422-0.315-2.133-0.758c-1.726-1.089-2.66-1.58-3.831-2.901c-0.828-0.922-0.885-0.963-1.543-1.992
												c-0.513-0.867-0.421-0.645-0.655-1.362c-0.76-2.265-0.111-5.396-0.325-8.36c-0.088-1.02-0.207-2.043-0.439-3.041
												c-0.197-0.718-0.513-1.397-0.831-2.068c-1.074-2.321-2.721-4.354-4.543-6.132c-1.189-1.099-2.356-2.227-3.654-3.198
												c-1.484-1.054-3.045-2.002-4.555-3.021c-0.665-0.398-1.314-0.837-2.039-1.122c-0.815-0.273-1.673-0.365-2.511-0.536
												c-1.205-0.231-1.617-0.412-2.673-1.152c-0.074-0.071-0.278-0.257-0.338-0.339c-0.083-0.1-0.167-0.199-0.246-0.301
												c-0.064-0.074-0.246-0.309-0.292-0.369c-0.936-1.236-1.24-1.753-1.605-3.147c-0.323-1.126-0.587-2.269-0.92-3.393
												c-0.295-0.949-0.57-1.992-1.316-2.696c-0.817-0.81-1.918-0.526-2.287,0.538c-0.154,0.492-0.168,1.016-0.235,1.527
												c-0.138,1.048-0.373,2.082-0.703,3.086c-0.518,1.458-2.328,4.328-3.689,6.216c-0.438,0.71-1.966,1.999-3.143,2.934
												c-0.634,0.56-2.042,1.384-3.313,2.056c-0.695,0.383-1.705,0.599-2.796,1.298c-1.54,0.927-2.282,1.636-3.872,1.885
												c-0.071-0.011-0.606,0-0.747-0.023c-0.28-0.003-1.885-0.36-2.176-0.611c-0.247-0.112-0.562-0.463-1.015-0.974
												c0.059,0.074,0.115,0.17,0.024,0.037c-0.009-0.013-0.017-0.026-0.025-0.038c-0.015-0.017-0.028-0.032-0.044-0.049
												c0.013,0.011,0.028,0.029,0.043,0.048c-0.539-0.795-0.934-1.68-1.382-2.528c-0.977-1.972-2.022-3.908-3.208-5.765
												c-0.574-0.917-1.026-1.758-1.419-2.584c-0.205-1.221-0.41-2.442-0.666-3.654c-0.141-0.682-0.295-1.362-0.442-2.043
												c-0.026-0.108-0.075-0.202-0.148-0.282c-0.323-0.445-0.956-0.388-1.279-0.033c-0.413-0.755-0.794-1.34-0.957-2.135
												c-0.298-0.927-0.143-1.876-0.07-3.245c0.019-0.966-0.189-1.916-0.454-2.839c-0.301-1.004-0.652-1.994-1.074-2.953
												c-0.633-1.298-1.266-2.596-1.824-3.928c-0.921-2.178-1.384-4.514-1.857-6.822c-0.48-2.448-0.788-3.74-0.899-6.173
												c-0.107-2.993,0.172-5.984,0.285-8.973c0.146-1.844-0.054-3.685-0.032-5.528c0.19-2.815,0.257-2.385,0.673-5.22
												c0.834-5.096,1.576-8.92,1.552-14.055c-0.022-2.286,0.076-4.609-0.422-6.854c-0.266-1.443-1.08-3.285-2.74-3.384
												c-0.776,0.068-1.511,0.513-1.951,1.154c-0.839,1.123-1.226,2.514-2.025,3.658c-0.177,0.21-0.372,0.404-0.57,0.594
												c-0.641,0.563-0.63,0.531-1.193,0.938c-1.982,1.271-2.944,1.907-4.937,1.68c-0.355-0.055-0.703-0.148-1.049-0.244
												c-0.784-0.208-1.55-0.477-2.328-0.705c-1.223-0.333-2.603-1.034-3.807-0.31c-2.434,1.392-4.124,2.958-6.565,5.083
												c-0.721,0.626-1.426,1.273-2.171,1.871c-0.135,0.105-0.271,0.211-0.406,0.316c-0.635,0.444-1.27,0.896-1.977,1.221
												c-1.071,0.408-1.66,0.437-2.589,0.494c-2.165-0.007-5.01-1-6.448-2.295c-2.406-2.106-3.558-4.64-5.789-7.286
												c-1.002-1.184-2.236-2.238-3.719-2.748c-1.008-0.386-2.227-0.712-2.912-1.196c-0.056-0.053-0.249-0.225-0.317-0.303
												c-0.105-0.113-0.204-0.233-0.298-0.356c-0.015-0.02-0.031-0.04-0.046-0.06c-0.081-0.106-0.157-0.215-0.23-0.327
												c-0.064-0.1-0.12-0.205-0.173-0.311c-0.013-0.034-0.028-0.066-0.04-0.1c-0.165-0.466-0.303-0.944-0.389-1.432
												c-0.194-1.171-0.24-4.052-0.046-5.875c0.07-1.901,0.464-3.088,1.544-4.907c0.931-1.286,1.906-2.544,2.728-3.906
												c1.211-2.061,2.25-4.217,3.46-6.278c1.776-3.132,3.999-5.975,5.929-9.006c0.782-1.24,1.426-2.565,2.255-3.775
												c0.703-1.033,1.95-2.423,3.025-3.774c1.45-1.773,2.879-3.59,4.688-5.016c2.341-1.793,7.061-2.701,10.889-3.875
												c2.427-0.797,4.851-1.969,6.723-2.697c0.421-0.17,0.842-0.34,1.263-0.51c0.032-0.009,0.061-0.022,0.091-0.035
												c0.633,0.717,1.471,1.276,2.241,1.825c1.704,1.165,3.41,2.335,5.204,3.359c1.151,0.632,2.376,1.117,3.545,1.714
												c0.394,0.169,1.014,0.485,1.657,0.773c-0.135,0.023-0.264,0.061-0.368,0.157c-0.572,0.41-0.256,1.373,0.462,1.36
												c1.849-0.123,3.643-0.657,5.316-1.441c1.13-0.561,2.186-1.259,3.3-1.849c1.09-0.569,2.188-1.126,3.255-1.738
												c0.995-0.587,1.948-1.241,2.929-1.849c0.901-0.556,1.823-1.08,2.708-1.661c0.824-0.542,1.603-1.151,2.438-1.679
												c1.263-0.774,2.185-0.965,3.945-1.369c1.111-0.202,3.645-0.303,5.494-0.378c1.957-0.024,3.965,0.187,5.092,0.736
												c1.706,1.009,2.828,1.507,3.548,2.845c0.115,0.273,0.147,0.231-0.068,1.105c-0.109,0.591-0.708,1.388-1.242,2.254
												c-0.267,0.504-0.484,1.035-0.669,1.574c-0.376,1.151-0.533,2.36-0.887,3.517c-0.68,1.936-1.131,2.933-2.088,4.831
												c-0.627,1.246-1.416,2.399-2.264,3.504c-0.402,0.503-0.8,1.01-1.216,1.5c-0.789,0.86-1.615,1.685-2.477,2.472
												c-1.059,0.99-1.496,1.319-2.899,2.21c-1.138,0.72-1.34,0.734-2.674,1.171c-1.926,0.561-2.939,0.478-4.862,0.058
												c-1.538-0.295-2.976-0.916-4.458-1.399c-1.82-0.538-3.7-1.095-5.617-0.991c-1.15,0.031-1.098,1.75,0.083,1.686
												c0.714,0.012,1.423,0.103,2.153,0.253c2.817,1.863,5.881,3.302,9.012,4.553c2.124,0.834,4.238,1.762,6.47,2.268
												c2.344,0.53,4.765,0.793,7.168,0.672c2.404-0.18,4.753-0.767,7.058-1.447c0.255-0.076,0.509-0.158,0.762-0.242
												c0.074,0.02,0.153,0.034,0.241,0.037c0.839,0.065,0.476,0.01,1.765,0.291
												C164.453,126.719,165.287,127.057,166.125,127.378z M338.719,137.565c0.402,0.871,0.938,1.668,1.526,2.424
												c1.241,1.537,1.756,2.21,2.987,3.997c0.785,1.121,0.947,1.779,1.316,3.44c0.542,2.197,0.302,4.718,0.145,7.567
												c-0.198,3.065-0.266,6.138-0.485,9.202c-0.212,1.997-0.274,2.636-0.576,4.467c-0.245,1.516-0.464,3.05-0.354,4.589
												c0.066,1.593,0.746,3.07,1.422,4.487c0.451,0.948,0.996,1.856,1.677,2.658c0.459,0.514,1.013,0.93,1.538,1.374
												c1.693,1.419,3.684,2.392,5.74,3.167c2.893,1.041,5.814,2.006,8.714,3.029c1.409,0.534,2.818,0.909,3.695,1.484
												c0.059,0.05,0.12,0.099,0.174,0.155c0.064,0.059,0.121,0.126,0.177,0.192c0.091,0.132,0.173,0.269,0.242,0.412
												c0.036,0.095,0.061,0.193,0.081,0.292c0.003,0.046,0.007,0.093,0.005,0.139c-0.083,0.415-0.222,0.814-0.383,1.204
												c-0.1,0.233-0.208,0.462-0.316,0.691c-0.367,0.77-0.748,1.535-1.13,2.298c-1.061,2.16-1.965,4.393-2.761,6.663
												c-0.967,2.703-1.989,5.862-2.908,7.794c-1.769,3.472-4.056,5.693-7.513,7.876c-3.35,2.126-7.157,3.49-10.34,5.882
												c-1.252,0.891-2.242,2.074-3.301,3.175c-1.241,1.349-2.212,2.234-3.307,2.963c-1.211,0.88-2.514,1.619-3.851,2.289
												c-2.06,1.041-2.952,1.483-4.985,2.111c-1.662,0.579-3.431,0.691-5.133,1.102c-1.786,0.484-3.518,1.163-5.203,1.923
												c-1.171,0.582-2.258,1.309-3.321,2.067c-1.794,1.244-3.219,2.908-4.803,4.391c-1.403,1.321-2.174,1.766-4.028,2.904
												c-0.722,0.415-1.446,0.83-2.219,1.145c0.081-0.034,0.161-0.068,0.242-0.102c-1.284,0.612-3.84,1.114-4.324,1.139
												c-2.996,0.273-6.381-0.255-8.376-1.157c-2.775-1.326-5.247-3.183-7.919-4.69c-1.43-0.81-2.984-1.372-4.518-1.951
												c-2.068-0.787-4.223-1.298-6.338-1.936c-1.675-0.507-2.031-0.609-3.516-1.513c-2.714-1.719-3.799-3.191-4.472-6.899
												c-0.238-1.563-0.103-5.199-0.227-7.725c-0.124-2.081-0.482-4.213-1.474-6.069c-0.772-1.231-1.608-2.455-2.653-3.471
												c-0.919-0.86-1.905-1.646-2.819-2.511c-0.922-0.883-1.763-1.848-2.553-2.849c0.335,0.446-0.365-0.485-0.517-0.687
												c-0.505-0.683-1.017-1.362-1.564-2.012c-0.661-0.81-1.414-1.539-2.206-2.22c-1.821-1.565-3.777-2.965-5.679-4.429
												c-1.427-1.061-1.945-1.355-3.343-2.772c-0.885-0.988-1.535-1.692-1.956-2.323c-1.898-2.951-3.061-6.294-4.622-9.423
												c-1.34-2.862-3.354-5.349-5.456-7.686c-2.167-2.405-2.864-3.359-3.106-5.913c-0.482-3.519-0.794-8.027-1.896-12.051
												c-0.93-3.379-1.985-7.715-1.756-10.025c0.159-1.089,0.454-2.157,0.815-3.196c0.369-1.058,0.585-1.566,1.335-2.803
												c0.563-0.87,1.536-1.837,2.367-2.34c0.061-0.023,0.122-0.045,0.184-0.064c0.095-0.027,0.192-0.048,0.289-0.066
												c0.894-0.078,0.936,0.025,2.088,0.246c1.154,0.209,1.987,0.796,3.47,1.522c1.717,0.89,3.395,1.851,5.11,2.744
												c1.979,1.051,3.996,2.027,5.975,3.078c3.192,1.705,6.395,3.389,9.638,4.993c0.438,0.167,0.88,0.571,1.374,0.476
												c0.49,0.242,0.987,0.471,1.505,0.647c1.092,0.282,2.245,0.439,3.354,0.16c1.048-0.339,2.131-0.809,2.86-1.663
												c0.894-1.11,1.64-2.557,1.393-4.018c-0.261-1.42-1.139-2.632-2.102-3.671c-0.932-1.03-1.963-1.983-3.116-2.761
												c-1.202-0.8-1.63-0.932-2.433-1.866c-0.038-0.043-0.075-0.085-0.104-0.119c-0.055-0.079-0.105-0.163-0.15-0.248
												c-0.013-0.028-0.023-0.049-0.031-0.065c-0.09-0.221-0.179-0.444-0.225-0.679c-0.044-0.463-0.016-0.93,0.007-1.393
												c0.056-0.672,0.427-2.568,0.913-3.835c0.059-0.129,0.16-0.349,0.209-0.43c0.41-0.693,0.358-0.564,0.9-1.238
												c0.382-0.461,0.781-0.911,1.208-1.331c0.313-0.291,0.153-0.147,0.396-0.333c0.043-0.034,0.091-0.063,0.14-0.088
												c-0.019,0.008-0.037,0.014-0.052,0.019c0.002-0.002,0.004-0.003,0.006-0.005c0.009-0.003,0.017-0.006,0.03-0.01
												c0.018-0.007,0.035-0.015,0.053-0.022c0.01-0.005,0.02-0.01,0.03-0.015c-0.005,0.003-0.011,0.006-0.016,0.009
												c0,0,0.001-0.001,0.001-0.001c-0.059,0.031,0.107-0.016,0.206-0.109c0.046-0.031,0.086-0.071,0.122-0.115
												c0.118,0.011,0.237,0.021,0.355,0.033c5.941,0.761,11.905,1.321,17.888,1.604c2.819,0.124,5.641,0.212,8.462,0.233
												c2.156-0.002,4.309-0.149,6.465-0.163c2.346,0.005,4.684,0.233,7.028,0.293c3.594,0.077,7.189,0.138,10.784,0.223
												c2.295,0.058,4.59-0.021,6.886-0.012c1.946,0.005,3.89,0.108,5.836,0.141c2.955,0.106,5.905-0.157,8.859-0.099
												c1.413,0.025,2.824,0.105,4.236,0.163c0.02,0.057,0.044,0.112,0.075,0.164c0.098,0.191,0.273,0.299,0.442,0.416
												c0.088,0.079,0.466,0.387,0.598,0.445c0.079,0.043,0.163,0.073,0.246,0.104c0.023,0.01,0.046,0.02,0.068,0.031
												c0.052,0.026,0.104,0.055,0.154,0.086c0.065,0.056,0.13,0.111,0.193,0.168c0.113,0.111,0.214,0.234,0.314,0.357
												c0.092,0.124,0.178,0.252,0.263,0.382c0.146,0.219,0.27,0.451,0.389,0.685c-0.034-0.08-0.068-0.16-0.101-0.24
												C337.753,134.978,338.102,136.26,338.719,137.565z"/>
										</g>
									</g>
								</g>
							</g>
						</g>
						<path d="M403.076,389.701c-0.008,0.019-0.016,0.038-0.024,0.057c0.017-0.039,0.029-0.065,0.038-0.086
							c0-0.001,0.001-0.003,0.001-0.004C403.087,389.678,403.082,389.688,403.076,389.701z"/>
						<path d="M403.094,389.664c0,0.002-0.001,0.003-0.001,0.004C403.117,389.613,403.114,389.619,403.094,389.664z"/>
					</g>
				</g>
				<path d="M200.303,396.324c-0.038,0.029-0.076,0.059-0.114,0.089C200.312,396.319,200.334,396.301,200.303,396.324z"/>
			</g>
			<path d="M193.923,394.676c0.018-0.042,0.037-0.086,0.056-0.129c0.01-0.024,0.02-0.048,0.029-0.072
				C193.98,394.542,193.952,394.609,193.923,394.676z"/>
		</g>
		<g>
			<path d="M484.395,325.939c0.001,0.001,0.001,0.002,0.001,0.002C484.393,325.931,484.392,325.928,484.395,325.939z"/>
			<path d="M484.396,325.941c0.005,0.015,0.014,0.045,0.026,0.076c-0.063-0.151-0.139-0.296-0.22-0.438
				c-0.226-0.423-0.458-0.844-0.727-1.241c-1.07-1.658-2.494-3.236-4.458-4.71c-1.63-1.188-3.508-2.009-5.393-2.702
				c-2.156-0.747-3.468-1.084-5.23-2.105c-1.602-0.914-2.043-1.291-3.066-2.134c-0.904-0.762-1.796-1.543-2.601-2.41
				c-2.156-2.441-3.669-4.75-5.663-7.618c-0.444-0.647-0.904-1.283-1.363-1.919c-0.084-0.143-0.22-0.247-0.378-0.291
				c-0.519-0.159-1.01,0.461-0.715,0.93c2.352,3.346,4.466,6.875,7.123,9.996c0.55,0.592,1.122,1.166,1.716,1.719
				c-0.354-0.25-0.707-0.499-1.06-0.749c-0.313-0.214-1.997-1.555-2.799-2.363c-0.358-0.354-0.703-0.721-1.017-1.115
				c-2.186-2.874-3.953-6.027-5.557-9.255c-0.704-1.383-1.372-2.789-2.207-4.099c-0.808-1.288-1.766-2.469-2.709-3.659
				c-0.636-0.612-1.594,0.298-0.967,0.967c0.897,1.156,1.851,2.321,2.767,3.914c1.551,2.863,2.812,5.877,4.429,8.706
				c0.154,0.279,0.315,0.553,0.481,0.826c-0.549-0.087-1.025,0.567-0.712,1.064c0.905,1.632,1.871,3.225,3.029,4.691
				c0.789,1.044,1.578,2.096,2.53,2.999c1.93,1.8,4.141,3.262,6.366,4.666c0.95,0.602,1.942,1.135,2.896,1.729
				c0.568,0.363,1.143,0.72,1.689,1.118c1.401,1.2,1.529,1.51,2.099,2.243c0.157,0.172,1.043,1.489,1.262,1.673
				c0.41,0.36,1.108,0.008,1.091-0.533c-0.049-0.41-0.1-0.308-0.385-0.87c-0.282-0.501-0.569-0.997-0.886-1.477
				c-0.041-0.062-0.086-0.121-0.129-0.182c-0.077-0.137-0.174-0.267-0.244-0.404c-0.387-0.639-0.784-1.272-1.244-1.861
				c-0.511-0.73-2.105-2.628-3.279-3.706c-0.423-0.415-0.864-0.81-1.313-1.194c0.988,0.583,2.026,1.08,3.118,1.466
				c2.713,0.958,4.407,1.505,6.739,2.955c0.89,0.591,1.389,1.061,2.46,2.035c1.356,1.317,2.189,2.506,2.796,3.239
				c0.24,0.3,0.223,0.288,0.311,0.4c0.047,0.066,0.096,0.13,0.142,0.197c0.028,0.039,0.056,0.079,0.085,0.117
				c0.044,0.072,0.096,0.138,0.168,0.182c0.132,0.119,0.329,0.171,0.502,0.134c0.263-0.016,0.496-0.236,0.565-0.486
				C484.5,326.285,484.494,326.099,484.396,325.941z M460.877,313.977c-0.921-0.822-1.705-1.778-2.467-2.745
				c-0.019-0.025-0.036-0.047-0.055-0.07c1.637,1.652,3.572,2.976,5.471,4.306c1.283,0.874,2.625,1.979,3.933,3.23
				C465.247,317.169,462.797,315.68,460.877,313.977z"/>
		</g>
		<path d="M226.397,234.959c-0.421-1.352-1.104-2.168-2.622-1.731c-0.029,0.008-0.056,0.021-0.083,0.032
			c-0.212-0.144-0.495-0.185-0.797-0.02c-1.988,1.188-3.163,2.808-4.141,4.866c-0.326,0.732-0.729,1.456-0.845,2.259
			c-0.161,1.187-0.002,2.429,0.392,3.557c0.428,1.023,0.82,2.13,1.605,2.939c0.65,0.54,1.625,0.572,2.357,0.178
			c1.038-0.665,1.335-1.101,1.842-1.799c0.675-0.957,1.18-2.019,1.664-3.082c0.643-1.426,1.055-2.965,1.167-4.527
			C226.966,236.713,226.712,235.814,226.397,234.959z M225.217,237.977c-0.112,0.754-0.287,1.499-0.505,2.229
			c-0.359,1.036-0.404,1.079-0.923,2.154c-0.722,1.411-1.202,2.335-2.101,3.12c-0.028,0.022-0.048,0.039-0.064,0.053
			c-0.076,0.054-0.155,0.104-0.238,0.146c-0.056,0.02-0.112,0.036-0.17,0.049c-0.029,0-0.063-0.001-0.1-0.003
			c-0.062-0.011-0.123-0.027-0.183-0.047c-0.001-0.001-0.003-0.002-0.004-0.003c-0.032-0.033-0.06-0.064-0.081-0.088
			c-0.004-0.005-0.008-0.01-0.011-0.016c-0.493-0.833-0.491-0.975-0.745-1.577c-0.251-0.61-0.43-1.245-0.517-1.899
			c-0.059-0.512-0.096-1.031-0.027-1.544c0.08-0.401,0.601-1.714,1.268-2.912c0.742-1.412,1.533-2.18,2.681-2.954
			c0.259,0.188,0.624,0.214,0.951,0.085c0.01-0.002,0.014-0.002,0.021-0.004c0.024-0.001,0.047-0.001,0.069-0.001
			c0.002,0.002,0.003,0.003,0.005,0.005c0.175,0.295,0.237,0.51,0.453,1.217c0.087,0.32,0.175,0.642,0.223,0.971
			C225.256,237.296,225.252,237.638,225.217,237.977z"/>
		<g>
			<path d="M330.304,241.398c-0.002,0.003-0.002,0.004-0.004,0.007c-0.008,0.02-0.015,0.039-0.023,0.059
				c0.01-0.021,0.023-0.051,0.034-0.082C330.309,241.387,330.306,241.393,330.304,241.398z"/>
			<path d="M352.212,232.513c-0.301-1.044-1.154-1.893-2.151-2.296c-0.596-0.214-1.248-0.236-1.875-0.233
				c-0.854,0.017-1.742-0.015-2.556,0.285c-1.309,0.544-2.573,1.199-3.794,1.918c-1.898,1.095-3.537,2.612-5.522,3.557
				c-1.189,0.456-1.438,0.491-2.423,0.721c-0.321,0.053-0.542,0.239-0.664,0.475c-1.059,0.274-2.002,0.912-2.843,1.604
				c-0.788,0.845-1.404,1.891-1.765,2.988c-0.249,1.038-0.156,2.093-0.436,3.115c-0.455,1.613-0.734,2.235-1.383,3.524
				c-0.37,0.705-0.835,1.402-0.929,2.209c-0.215,1.589,1.182,2.979,2.449,3.719c1.664,0.852,3.564,1.218,5.422,0.979
				c0.902-0.1,1.823-0.207,2.631-0.651c1.623-0.848,2.778-2.298,3.893-3.707c1.26-1.561,2.479-3.16,3.832-4.642
				c1.49-1.532,2.321-1.959,3.903-3.214c0.931-0.693,1.778-1.492,2.418-2.466C352.049,238.168,352.811,235.232,352.212,232.513z
				 M350.243,236.911c-0.225,0.788-0.527,1.325-1.218,2.352c-0.446,0.635-0.624,0.91-1.496,1.641
				c-1.035,0.895-3.259,2.258-4.719,3.753c-2.089,2.16-3.781,4.675-5.857,6.846c-0.551,0.579-1.535,1.157-1.795,1.247
				c-1.223,0.394-2.923,0.42-3.854,0.247c-2.131-0.388-3.307-1.39-3.604-2.207c-0.004-0.018-0.007-0.035-0.01-0.049
				c-0.006-0.091-0.006-0.183,0.003-0.274c0.043-0.169,0.121-0.389,0.164-0.507c0.688-1.464,1.495-3.007,1.949-5.066
				c0.195-0.901,0.178-1.829,0.28-2.742c0.038-0.236,0.104-0.465,0.19-0.688c-0.025,0.05-0.035,0.057,0.023-0.059
				c0.008-0.021,0.016-0.043,0.025-0.064c-0.004,0.013-0.008,0.027-0.013,0.04c0.272-0.548,0.556-1.096,0.914-1.593
				c0.347-0.412,0.304-0.298,0.881-0.732c0.816-0.501,0.937-0.622,1.665-0.772c0.009,0.003,0.017,0.007,0.026,0.01
				c0.186,0.082,0.716-0.031,0.432,0.005c0.284-0.04,0.564-0.102,0.841-0.173c0.236-0.063,2.241-0.73,3.147-1.332
				c1.953-1.214,3.724-2.71,5.783-3.753c1.154-0.564,1.856-1.026,2.648-1.189c0.035-0.005,0.066-0.01,0.094-0.014
				c0.652-0.063,1.31-0.056,1.964-0.054c0.802,0.083,0.889,0.035,1.622,0.833c0.015,0.022,0.032,0.047,0.05,0.075
				c0.025,0.041,0.044,0.075,0.06,0.105c0.251,0.736,0.145,0.521,0.229,1.384C350.68,235.333,350.605,235.594,350.243,236.911z"/>
		</g>
		<path d="M402.829,169.883c-0.064-2.529,0.166-5.101-0.437-7.582c-0.298-0.964-0.815-1.844-1.287-2.731
			c-0.705-1.306-1.611-2.48-2.593-3.588c-1.929-2.049-4.077-3.939-6.581-5.253c-2.561-1.299-5.263-2.268-7.96-3.236
			c-0.883-0.353-1.994-0.873-3.483-1.464c-1.721-0.546-3.534-0.692-5.294-1.065c-1.426-0.297-1.613-0.38-2.878-0.486
			c-0.816-0.065-1.678,0.029-2.333,0.561c-0.407,0.299-0.846,0.775-0.919,1.288c-0.051,0.249-1.034,4.673-1.455,6.713
			c-0.385,1.845-0.545,3.727-0.724,5.6c-0.223,2.54-0.605,5.091,0.589,7.467c0.541,1.22,1.312,2.35,2.243,3.305
			c1.291,1.211,2.749,2.241,4.265,3.148c1.584,0.898,3.271,1.602,4.829,2.546c1.257,0.772,1.344,0.804,2.333,1.928
			c1.038,1.27,1.198,1.426,2.054,2.772c0.78,1.329,1.484,2.701,2.294,4.013c0.339,0.531,0.727,1.028,1.122,1.517
			c0.027,0.032,0.051,0.067,0.08,0.097c0.017,0.021,0.033,0.043,0.049,0.064c0.773,0.94,1.569,1.958,2.707,2.466
			c0.474,0.22,0.957,0.442,1.477,0.512c0.477,0.094,0.963,0.159,1.447,0.075c1.074-0.129,2.138-0.464,3.041-1.069
			c1.273-0.826,2.495-1.759,3.422-2.974c0.425-0.518,0.847-1.042,1.211-1.605c0.438-0.73,0.777-1.515,1.131-2.288
			c0.653-1.38,1.132-2.828,1.409-4.33C402.998,174.664,402.805,172.257,402.829,169.883z M400.69,175.381
			c-0.075,0.501-0.186,1.581-0.667,3.147c-0.498,1.35-0.623,1.767-1.564,3.541c-1.057,1.631-2.177,2.797-3.874,3.872
			c-0.834,0.504-0.657,0.449-1.539,0.712c-0.887,0.205-0.607,0.197-1.424,0.184c-1.637-0.239-2.863-1.908-4.129-3.833
			c-1.014-1.653-1.832-3.423-2.904-5.041c-0.834-1.152-1.7-2.295-2.701-3.309c-1.617-1.446-3.649-2.309-5.56-3.293
			c-1.31-0.654-2.552-1.438-3.719-2.322c-1.647-1.147-3.503-3.327-3.876-6.07c-0.164-1.815,0.383-8.206,0.678-9.51
			c0.266-1.478,0.609-2.941,1.005-4.389c0.174-0.639,0.351-1.277,0.527-1.916c0.032-0.118,0.101-0.454,0.145-0.482
			c0.033-0.021,0.065-0.042,0.097-0.064c0.091-0.065,0.19-0.117,0.285-0.174c0.754-0.259,1.617,0.085,3.627,0.603
			c1.763,0.391,4.723,0.893,5.495,1.344c2.529,1.22,6.288,2.37,7.983,3.165c2.564,1.08,4.683,2.355,6.228,3.842
			c0.974,0.904,1.959,1.801,2.788,2.844c0.649,0.662,1.701,2.446,2.459,3.984c0.05,0.106,0.098,0.213,0.146,0.321
			c0.185,0.487,0.254,1.01,0.345,1.523c0.088,0.724,0.121,1.453,0.122,2.182c0.016,1.785,0.03,3.57,0.058,5.356
			C400.727,172.857,400.801,174.124,400.69,175.381z"/>
	</g>
</g>
</svg>
